/* XPM */
static char *result[] = {
/* columns rows colors chars-per-pixel */
"32 32 96 2 ",
"   c #060507",
".  c #070709",
"X  c #07080A",
"o  c #0C0B0C",
"O  c #160A0C",
"+  c #190C0E",
"@  c #0F0E10",
"#  c #120F11",
"$  c #1C0F11",
"%  c #131114",
"&  c #161619",
"*  c #181719",
"=  c #16181B",
"-  c #1D1D1F",
";  c #211517",
":  c #231518",
">  c #24181B",
",  c #1F1E21",
"<  c #201F21",
"1  c #242323",
"2  c #2A2727",
"3  c #2B2827",
"4  c #2D2A29",
"5  c #342822",
"6  c #3C3131",
"7  c #383839",
"8  c #413635",
"9  c #4B3434",
"0  c #443837",
"q  c #453939",
"w  c #493C3B",
"e  c #523A39",
"r  c #5D3938",
"t  c #524240",
"y  c #6D554F",
"u  c #6E5550",
"i  c #745A53",
"p  c #785D55",
"a  c #6B666E",
"s  c #6D6870",
"d  c #7B6A72",
"f  c #76717A",
"g  c #79747C",
"h  c #8C2A2A",
"j  c #922F2F",
"k  c #9C2E2E",
"l  c #963435",
"z  c #983434",
"x  c #9A3A3B",
"c  c #A33333",
"v  c #AD3232",
"b  c #A7393A",
"n  c #AA3C3A",
"m  c #AD4039",
"M  c #C66226",
"N  c #D26D32",
"B  c #A24041",
"V  c #AD4041",
"C  c #B44747",
"Z  c #B74B44",
"A  c #B94B44",
"S  c #B54848",
"D  c #89777F",
"F  c #8E7D7E",
"G  c #7B7780",
"H  c #7B7880",
"J  c #837D86",
"K  c #857F88",
"L  c #7D8B94",
"P  c #86818A",
"I  c #88858E",
"U  c #8A8992",
"Y  c #89969F",
"T  c #8B9BA4",
"R  c #989AA3",
"E  c #95A3AC",
"W  c #98A7B1",
"Q  c #9AABB5",
"!  c #9CAFB9",
"~  c #A7A8B0",
"^  c #A6B6BF",
"/  c #A7B7C0",
"(  c #CDCECE",
")  c #DFD3D3",
"_  c #DCDEDF",
"`  c #E1D4D3",
"'  c #E5E5E6",
"]  c #ECE1E2",
"[  c #E8E7E8",
"{  c #E7E8E9",
"}  c #F7E9E9",
"|  c #F8EBEB",
" . c #EAEEF0",
".. c #F5F7F8",
"X. c #F6F8F9",
"o. c #FCFCFD",
/* pixels */
"1 1 1 1 1 1 q q 1 1 1 1 1 1 1 1 q w q w q q 1 1 q q 1 1 1 < 1 < ",
"1 1 1 1 1 2 q q 3 1 1 - - - < 1 q w w w w q 2 2 q q 3 1 1 2 3 3 ",
", 1 8 0 q q w q q 6 # X X X X o 8 w q w w q q q q q q 0 q w y y ",
"1 2 q w q q w w w 8 o   O O + $ 6 8 q w w w q w w w w w w w i p ",
"0 0 w q w q w w w 8 o O h k k h $ # 8 w q w w q w q w q w t i i ",
"q w w w w w q w w 8 % $ h k n l + o 6 0 8 8 8 8 q w w w q w i i ",
"w w q w q w w w w q 0 6 $ : d d %   X o X o o % 8 w w w w t i i ",
"q 0 w w w w w q w q 8 6 & , g g 1 = = = = = = - 6 8 q q w w i p ",
"1 2 q w q w w w w 8 O & a g J P T T T T T T T L - % 8 w q t i i ",
"1 2 q w w w w q 8 6 & , H I P U W ! ! ! ! ! ! T = o 8 w w w i p ",
"q q q w q w w 8 % = a G E W W W Q ! Q Q Q ! ! T = o 8 w q t i i ",
"q q q w w w q 8 o % g U W ! ^ ^ ^ / ^ ^ ^ ^ / E = o 8 q w w y i ",
"1 2 0 q w w w 8 o & Y Q Q ^  ...............X._ 1 o 8 w q w w e ",
"1 1 q w q w q 8 o = T ! Q ^ ..o.[ [ ' [ ' ' [ ( , X 8 w w w w t ",
"1 1 q q w w w 8 o = T ! ! ^ X.[ 7 - - , 1 < 1 - . o 8 q q t y i ",
"1 1 q w w q w 8 o = Y Q Q / X.[ 7 - , - .   - , X o 8 w w w y i ",
"1 1 0 w w w w 8 o % g U W ^ ..o.[ ' [ ( - - ( ( , o 0 w w w w t ",
"1 2 0 w q w q 8 o % a G R ~ ] } | | | ) 5 5 ) ) , o 6 w q w w w ",
"q q q w w w w 8 @   % > x m C C S S C Z M M Z b + o 8 w w w u i ",
"w q w w w q q 0 % o   $ l n n n b b b n N N m z + o 8 w q t i p ",
"w q w w w q w q 6 6 @ % d D D D D D D D F F J d % o 8 q w t i p ",
"0 0 q w w w w w e 9 o % f J J J f f f f f f J f & o 8 w w w y i ",
"1 3 q w w q q e l j O & f P P f , % % % % , g g % o 8 w w w w w ",
"1 1 q q q w e r c k O % f P f s : O X X % , a a & % 8 q w w w w ",
"1 1 q q w e z c v k O % f f > * h h O % a s - & 6 8 q w w q w w ",
"1 2 q q q e z c c j O % s s & $ l h O % a a * # 8 w w q w w w w ",
"1 1 q w w w e e e 9 o . % * 6 0 w 9 O . % * 6 8 q w q w w t u i ",
", 1 q w w q w w w 8 % o o # 8 w w 8 % o o % 8 w w w w w w w i p ",
"1 1 0 q q w w q w q 8 8 8 0 q w q q 6 0 7 6 w w w q w w q e i p ",
"3 4 w t t w w w w w t w w w w w e t w t t w w w w t w w w t i p ",
"u u i u i u w w w w u u w t y i i i i i i u w t u i i i i i p p ",
"p p p p p i w w q t i i w w i p i p p i p p w w i p p i i i p p "
};
