/* XPM */
static char *result[] = {
/* columns rows colors chars-per-pixel */
"32 32 110 2 ",
"   c #020305",
".  c #050608",
"X  c #0E0709",
"o  c #07080A",
"O  c #0B0A0C",
"+  c #150903",
"@  c #140709",
"#  c #17090B",
"$  c #180B0D",
"%  c #0F1013",
"&  c #121214",
"*  c #141619",
"=  c #16181B",
"-  c #1B1B1D",
";  c #231E1E",
":  c #2A1F1F",
">  c #1F1F21",
",  c #252323",
"<  c #2A2424",
"1  c #2B2827",
"2  c #2B2728",
"3  c #2C2929",
"4  c #3D3333",
"5  c #531C1D",
"6  c #591C1D",
"7  c #571F21",
"8  c #572021",
"9  c #5E2728",
"0  c #413635",
"q  c #443837",
"w  c #4A3837",
"e  c #453938",
"r  c #493C3B",
"t  c #543B3A",
"y  c #753736",
"u  c #7A3636",
"i  c #3F3C41",
"p  c #443E43",
"a  c #444147",
"s  c #464349",
"d  c #4C494F",
"f  c #514143",
"g  c #4D4C52",
"h  c #4E565C",
"j  c #50595F",
"k  c #6D554F",
"l  c #6E5650",
"z  c #745A53",
"x  c #785D55",
"c  c #525B61",
"v  c #757577",
"b  c #77717A",
"n  c #79747C",
"m  c #7F7879",
"M  c #9D2E2E",
"N  c #803636",
"B  c #A02E2F",
"V  c #A43333",
"C  c #AD3333",
"Z  c #A7393A",
"A  c #A93A3B",
"S  c #B13333",
"D  c #BF5735",
"F  c #C96621",
"G  c #D97530",
"H  c #97575B",
"J  c #98585C",
"K  c #B64646",
"L  c #B54748",
"P  c #B54848",
"I  c #B8484A",
"U  c #975F64",
"Y  c #87767E",
"T  c #88767E",
"R  c #8C7C7C",
"E  c #A36A6E",
"W  c #7D7780",
"Q  c #7E7F80",
"!  c #8B7780",
"~  c #847E87",
"^  c #8C7981",
"/  c #847F88",
"(  c #86838C",
")  c #89858E",
"_  c #878C95",
"`  c #8E8C91",
"'  c #918E96",
"]  c #918F98",
"[  c #8B9BA4",
"{  c #9199A2",
"}  c #92A2AB",
"|  c #98A7B1",
" . c #97A8B2",
".. c #9AABB5",
"X. c #9CAEB8",
"o. c #9EB1BB",
"O. c #A5B6BF",
"+. c #A9B9C2",
"@. c #C5CCD2",
"#. c #C8D2D7",
"$. c #CDD6DB",
"%. c #E5E4E5",
"&. c #EAEBEB",
"*. c #F5EEEE",
"=. c #F9ECEC",
"-. c #F2F2F3",
";. c #FFF3F3",
":. c #F6F7F8",
">. c #F6F8F9",
",. c #FEFFFF",
/* pixels */
", , , , > 1 4 e , , > , , > , & . . . . . ; < , q q , , > > , > ",
", > , , , 3 e e 1 , , 1 , 1 1 *   . . . . ; 2 2 q q 2 , 2 , 1 3 ",
"> , 4 e e 4 r r e q q q 4 0 4 : # $ $ O . , e q r r q q q r k l ",
", 1 r r r r r r r r r r p 1 O 5 M M M 5   , r r r e r r e a z x ",
"q q e r r r r 4 0 0 0 0 q ; . 8 D M B 7 o < r r r e r e r f l x ",
"r r r r r r r 1 O O O O O o   r ^ p @ : 0 q r r r r r r r r l x ",
"e r r e r q 4 3 = = = * = = * d / g % < 0 q w w e r r r r r z x ",
"q q r r r < O h [ [ [ [ [ [ [ _ / W W i o < p w e r r r r r z x ",
", , r r r ,   j o.X.X.X.X.X.X.[ ( ( ) g % < 0 q r r r r r f z x ",
", 1 e r r :   j X.......X.X.....| ...._ v p O < r r e r e r l x ",
"q e r e r ,   j +.O.O.O.O.O.O.O.O.O...{ ) s   : r e r r r f z x ",
"e e r r r :   Q ,.>.>.>.>.>.>.:.:.@.......j   , r r r e r r l l ",
", , e r r ,   v &.%.%.%.%.%.%.-.,.$.....o.j   : r r e r r r r r ",
"1 , e r r , . & > , , > > > - ` ,.$.....o.j   , r r r r r w r f ",
"> 1 e r r , . & > &   & > > - ` ,.$.......h   : r r r e w f l z ",
"> , 4 r r ,   v &.v   v &.%.%.-.,.$.o.{ ` s   , r e r w r r k z ",
"> , q r r ,   m ;.R + R =.=.=.*.-.@. ._ b i   , r r r e r r r r ",
"2 2 q e r :   9 I D F D P K K E ' ` ( g & O . : r e r r r r f t ",
"4 e r r r ,   7 A D G D Z Z A H T T ! p   O O < r r e e r r k l ",
"r r r r r : . p R R R Y T T Y J A A A 8   ; 0 e r r r r r f z x ",
"r e r r r ,   s ) ( ( ( ( ( ( U A A A 8 . : t t r r r e r f l x ",
"e e e r r :   h ..............' T Y ^ p   6 V y e e r r e r k z ",
"1 1 e r r ,   h X.} [ [ [ [ [ _ ~ ~ ( a   6 S N t r r r r r r r ",
"> , 4 r r :   s ` g * * = = * g ( ~ ~ s   6 C V V y e r r r r r ",
", 1 e r r < o a n a % O . X # p n m ( s   6 C C S u e r r r r e ",
"> , e r p e 0 , % a n i   5 B 8 % d ( s   6 C C C u e e r r f r ",
"> 1 4 r r e r < O p m p   5 C 6 o i m i   5 V V V y r r w f k l ",
"1 , 4 r r r r q 0 1 & O   < t e 4 1 & O . : t t t r r r r r z x ",
", < e r r r r r r < O O O < r r r < O O O 1 r e r r r r e t z x ",
"< 3 r r r r r r r e q q q e r r f r e e e r r r r f r r r f z x ",
"k k l x l k r r r r l k r f k x z l l z z k f r k z l z l l x x ",
"x x x x x x r r r r x x r r l x x x x x x z r r z x x x x x x x "
};
