/* XPM */
static char *result[] = {
/* columns rows colors chars-per-pixel */
"32 32 100 2 ",
"   c #050507",
".  c #060709",
"X  c #080608",
"o  c #0C0B0C",
"O  c #160A0C",
"+  c #190C0E",
"@  c #120F11",
"#  c #1C0F11",
"$  c #131114",
"%  c #161719",
"&  c #181719",
"*  c #16181B",
"=  c #1C1D1E",
"-  c #211517",
";  c #231518",
":  c #1E1E21",
">  c #201F22",
",  c #242323",
"<  c #2A2727",
"1  c #2B2827",
"2  c #2D2A29",
"3  c #342822",
"4  c #3C3131",
"5  c #383839",
"6  c #413635",
"7  c #4B3434",
"8  c #443837",
"9  c #453939",
"0  c #493C3B",
"q  c #523A39",
"w  c #5D3938",
"e  c #524240",
"r  c #6D554F",
"t  c #6E5550",
"y  c #745A53",
"u  c #785D55",
"i  c #6B666E",
"p  c #6D6870",
"a  c #7B6A71",
"s  c #767179",
"d  c #79757D",
"f  c #8C2A2A",
"g  c #922F2F",
"h  c #9B2D2D",
"j  c #963435",
"k  c #983434",
"l  c #A33333",
"z  c #AD3232",
"x  c #A7383A",
"c  c #A93B3A",
"v  c #AD4039",
"b  c #C66226",
"n  c #D26D32",
"m  c #A43F41",
"M  c #A34142",
"N  c #B64747",
"B  c #B74B44",
"V  c #B94B44",
"C  c #B54848",
"Z  c #B14F50",
"A  c #8C6F76",
"S  c #87757D",
"D  c #89767E",
"F  c #8D7C7C",
"G  c #7B7780",
"H  c #7C7981",
"J  c #837D86",
"K  c #8A7C84",
"L  c #857F89",
"P  c #7D8B94",
"I  c #86838C",
"U  c #88858F",
"Y  c #95858C",
"T  c #8A8992",
"R  c #908C94",
"E  c #89969F",
"W  c #8997A0",
"Q  c #8B9BA4",
"!  c #94A2AB",
"~  c #98A4AD",
"^  c #98A7B1",
"/  c #9AAAB4",
"(  c #9CAFB9",
")  c #A6B5BE",
"_  c #A7B7C0",
"`  c #CDCECE",
"'  c #DFD3D3",
"]  c #DCDEDF",
"[  c #E1D4D3",
"{  c #E5E5E6",
"}  c #E8E7E8",
"|  c #E7E8E8",
" . c #E8E9EB",
".. c #F7EBEB",
"X. c #F9EBEB",
"o. c #EAEEF0",
"O. c #F3F1F2",
"+. c #F5F7F8",
"@. c #F6F8F9",
"#. c #FCFCFD",
/* pixels */
", , , , > , 9 9 , = o X X X   o 5 0 0 0 0 9 , , 9 9 , , , , , , ",
"> , , < , 1 9 9 2 , X X O O + # 4 8 9 0 9 9 1 1 9 9 < , , , < < ",
"> , 6 6 6 9 9 0 9 4 o + f h h f # @ 6 0 0 9 9 9 9 0 6 9 8 0 r r ",
", 1 9 0 0 0 9 0 0 6 $ + f h c j + X 4 6 6 6 6 5 9 0 0 0 9 0 y u ",
"6 9 0 9 0 9 0 0 9 9 9 4 # ; a a $   o o o o o $ 6 0 0 9 0 0 u u ",
"0 9 0 0 0 0 0 9 9 0 6 4 & : d s , % * * * * * = 4 8 9 0 0 0 y u ",
"0 0 9 0 9 0 0 9 0 6 @ % i s J I Q Q Q Q Q Q Q T = @ 6 0 0 0 y u ",
"9 6 0 0 0 0 0 9 6 4 & > H U I U / ( / ( ( ( ( Q * o 6 0 0 0 y y ",
", 1 9 0 9 0 0 6 @ & i d ! / ^ / / ( / / / / ( Q * o 6 0 9 0 y u ",
", 2 6 0 0 0 9 6 o $ d T / ( ) ) _ _ _ ) _ ) _ ! * o 6 9 0 e t u ",
"6 9 0 0 9 0 0 6 o * W / / )  .@.@.@.@.@.@.@.@.] , o 6 0 9 e y u ",
"0 6 0 0 0 0 0 6 o * Q ( ( _ @.#.| { { { { { { ` = o 4 0 9 0 r y ",
", 1 8 0 0 0 0 5 o * Q ( / _ @.} 5 = > > , > > = o o 6 9 0 0 0 e ",
", , 6 0 0 0 0 6 o * E / / _ @.} 5 = > = . . = : . o 6 0 9 0 0 0 ",
", , 8 0 0 0 9 6 o % d T / ) +.#.| { { ` : = ` ` : o 8 0 0 e t y ",
", , 8 0 9 0 0 4 o $ i d ! ) | O.......' 3 3 [ ' > o 4 0 9 q t y ",
", , 8 0 0 9 0 6 o . $ : d U T Y Z N C B b b V M # o 6 9 9 0 0 q ",
", < 8 0 0 0 0 6 $ o   $ a D S S M x x v n n v j O o 5 0 0 0 0 e ",
"8 9 0 9 9 0 9 9 6 4 o # j c x v A D S S F F D a $ o 6 0 0 0 t y ",
"9 0 0 9 0 0 0 0 q 7 o O j c c M K I I I I I U d $ o 6 0 0 0 y u ",
"0 9 0 0 0 0 9 q j g O $ a S S K ~ / / / / / / W * o 6 9 0 e y u ",
"8 9 0 9 9 0 q w l h O $ s J J I Q Q Q Q Q W ^ W * o 6 0 0 0 t y ",
", < 9 0 0 q k k z h + $ s I I d , % % * * , H G $ o 6 0 0 9 0 e ",
", < 8 9 9 q l z z h # $ s I s p & O     $ = p i & $ 6 9 0 0 9 9 ",
", , 9 0 0 q l z z h + $ s d ; - f f O $ i p = & 4 6 9 0 0 0 9 0 ",
": < 6 0 0 0 k l l g O $ i p % # j f O $ i i & $ 6 0 0 9 9 0 e q ",
", < 6 9 9 0 q q q 7 o X $ % 4 6 0 7 O X $ & 4 6 9 0 0 0 0 0 t y ",
", , 6 0 0 0 9 9 0 6 $ o o @ 8 0 9 6 $ o o $ 6 0 0 9 9 0 0 0 y u ",
"> < 8 0 9 0 0 9 0 9 6 6 6 6 0 0 0 9 5 6 4 5 0 0 0 0 0 0 0 e y y ",
"1 2 0 0 e 0 0 0 0 0 e 0 0 0 0 0 q e 0 q e 0 0 0 0 0 e 0 0 e y u ",
"t t y t y r q 0 0 0 r r 0 e r t y t u y y t 0 e t y y t y y y u ",
"u u u u y y e 0 0 0 y y e 0 y u u u u u u y 0 0 y u u u y y u u "
};
