/* XPM */
static char *result[] = {
/* columns rows colors chars-per-pixel */
"32 32 101 2 ",
"   c #020204",
".  c #0C0A0C",
"X  c #140709",
"o  c #150A0C",
"O  c #180A0C",
"+  c #140F11",
"@  c #0F1013",
"#  c #121215",
"$  c #1C1617",
"%  c #141619",
"&  c #16181B",
"*  c #1A1B1D",
"=  c #231E1E",
"-  c #1C1E21",
";  c #242323",
":  c #2A2425",
">  c #2B2827",
",  c #2B2728",
"<  c #2D2A29",
"1  c #302323",
"2  c #3F3535",
"3  c #521B1C",
"4  c #5A1C1D",
"5  c #572022",
"6  c #413535",
"7  c #443837",
"8  c #453938",
"9  c #493C3B",
"0  c #523A39",
"q  c #602324",
"w  c #6E3131",
"e  c #743636",
"r  c #7B3736",
"t  c #4E403E",
"y  c #7D4524",
"u  c #3E3C41",
"i  c #433E43",
"p  c #454247",
"a  c #454248",
"s  c #4C494F",
"d  c #524240",
"f  c #50474D",
"g  c #4D4B51",
"h  c #4C5359",
"j  c #50595F",
"k  c #6D554F",
"l  c #6E5550",
"z  c #745A53",
"x  c #785D55",
"c  c #525B61",
"v  c #767677",
"b  c #76727A",
"n  c #79747C",
"m  c #9C2C2C",
"M  c #803636",
"N  c #A02E2E",
"B  c #AC2D2D",
"V  c #B2352C",
"C  c #A53333",
"Z  c #AC3333",
"A  c #B13333",
"S  c #DF6C26",
"D  c #884F53",
"F  c #895054",
"G  c #925256",
"H  c #99595D",
"J  c #AF7457",
"K  c #996A6F",
"L  c #AA7479",
"P  c #7D7780",
"I  c #7E7981",
"U  c #847E87",
"Y  c #847F88",
"T  c #838384",
"R  c #85828B",
"E  c #89868F",
"W  c #878C95",
"Q  c #8F959F",
"!  c #909091",
"~  c #8B9CA5",
"^  c #9096A0",
"/  c #9299A3",
"(  c #9AACB6",
")  c #9CAEB8",
"_  c #9EB0BB",
"`  c #A5B5BE",
"'  c #C0898A",
"]  c #CC8F8B",
"[  c #D09495",
"{  c #D69999",
"}  c #A6B9C2",
"|  c #B7BFC4",
" . c #C8D2D7",
".. c #CDD6DB",
"X. c #CED8DD",
"o. c #E4E3E4",
"O. c #EAECED",
"+. c gray95",
"@. c #F5F7F8",
"#. c #F6F9FA",
"$. c white",
/* pixels */
"; ; ; ; ; ; 8 8 ; ; ; ; ; ; ; ; 8 8 9 9 9 7 ; ; 8 8 ; ; ; ; ; - ",
"- ; ; ; ; > 8 8 > ; ; ; ; ; ; > 8 9 9 9 9 9 : , 8 8 > ; ; ; > > ",
"; ; 2 7 8 8 8 8 7 7 7 6 7 7 8 6 : ; ; : = : 6 7 9 9 6 7 8 8 k l ",
"; > 8 9 9 8 9 9 9 9 9 9 8 9 9 6 .         . 6 9 9 9 9 9 8 t z x ",
"8 8 9 9 9 9 9 8 9 9 9 9 9 8 : = 3 4 4 3 . . 6 9 8 9 8 9 9 t z x ",
"8 9 8 9 8 9 9 9 9 9 9 9 9 6 o o m A A N O . 6 9 9 9 9 9 8 t z x ",
"9 9 9 8 8 9 9 7 : = : = ; = . o F G q 3 : : 8 9 9 9 8 9 9 9 l x ",
"8 8 9 9 9 8 9 7 .             # b b @ . 6 9 9 9 9 8 9 9 9 9 z x ",
"; > 8 8 9 8 : > h j j j j j j c n U s i : : 8 9 9 9 9 8 9 t z x ",
"; > 8 9 8 6 . % ~ ` ) _ _ _ ` ( R U Y b @ . 6 9 9 8 9 9 9 9 z x ",
"8 8 9 9 9 6 . & ~ ) ) ( ( ( ( ( / Q Q W s i > ; 8 8 9 8 9 9 z x ",
"7 8 9 8 9 6 . & ~ ( ( ( ( ( ( ( ( ) ( ( E b # . 6 9 9 9 9 9 k z ",
"; > 8 8 9 6 . - | .. ............. .` ( / R % . 6 9 9 9 9 9 9 0 ",
"; ; 7 9 9 6 . - O.$.$.$.$.$.$.$.$.@.` ( ) ~ & . 6 9 8 9 8 9 9 d ",
"; ; 7 9 9 6 . # v T T T T T T ! +.@.` ( ) ~ & . 6 8 9 8 9 t l z ",
"; ; 7 8 8 6 . .               % o.@.` ( _ ~ & . 6 9 9 9 8 9 l z ",
"; ; 7 9 9 6 . # v v # # v T T ! +.@.` ( / R % . 6 9 9 8 9 9 9 9 ",
"; , 7 8 9 6 . ; O.O.- - O.$.$.$.$.#.} ( E n # . 2 9 9 9 9 9 0 i ",
"8 8 9 9 9 2 . $ ' ] y y ] { { { { [ L K g u . . 2 8 9 8 9 t z z ",
"9 8 9 8 9 6 . O m V S S V B B B B B B m O     . 6 9 9 9 9 9 z x ",
"9 8 9 8 9 6 . + D H J J H H H H H H H D + . = > 6 9 8 9 9 9 z x ",
"8 8 9 9 9 6 . # b U R R R R R R U U Y b # . 2 9 9 9 9 9 9 9 k z ",
"; > 8 9 8 6 . # b P g p a a a s P U Y b # o w e 9 9 8 9 9 9 9 t ",
"; ; 8 8 9 6 . # n b +         @ b R Y b # O m C 0 9 9 9 9 9 9 9 ",
"; ; 2 9 8 8 > ; i i a u . X 3 5 i g I b # o m Z M e 9 9 9 8 9 9 ",
"; ; 8 9 9 9 9 6 . @ n P # O N N X @ n b # o m Z V C 0 9 9 9 0 9 ",
"; ; 8 9 9 9 9 7 : : i u @ + w w 1 : p u . O w r r e 9 9 9 9 l z ",
"; ; 8 9 9 8 9 9 9 6 .     . 2 9 9 6 .     . 2 9 8 8 9 9 9 9 z x ",
"; ; 8 8 8 9 9 9 9 8 : ; : , 8 9 9 8 : = ; : 7 9 8 9 9 9 9 d z x ",
"> < 9 9 9 0 9 9 9 9 9 d 9 9 9 9 9 t 0 t t t 9 9 t t 0 i 9 d z x ",
"l z z z z l 9 9 9 9 l l 9 9 l z z l x z z k t 9 l z l z l z z x ",
"x z x z x z t 9 9 9 z z d 0 l x x x x x x z 9 9 z x x x x z x x "
};
