/* XPM */
static char * map1_xpm[] = {
"100 100 58 1",
" 	c None",
".	c #EAEAC7",
"+	c #D6D695",
"@	c #D6D696",
"#	c #E0E0B1",
"$	c #EAEAC8",
"%	c #E1E1B3",
"&	c #D9D99E",
"*	c #DCDCA5",
"=	c #D8D89A",
"-	c #DBDBA4",
";	c #D9D99D",
">	c #E8E8C2",
",	c #E8E8C1",
"'	c #D8D89C",
")	c #E5E5BB",
"!	c #E7E7C1",
"~	c #D8D89B",
"{	c #E3E3B7",
"]	c #E3E3B6",
"^	c #D6D697",
"/	c #E5E5BC",
"(	c #EBEBC8",
"_	c #D7D796",
":	c #D7D797",
"<	c #4E4E00",
"[	c #4A4A00",
"}	c #C9C98B",
"|	c #DEDEAA",
"1	c #707039",
"2	c #4F4F00",
"3	c #515100",
"4	c #4D4D00",
"5	c #CACA8C",
"6	c #71713B",
"7	c #CBCB8D",
"8	c #D5D594",
"9	c #D8D898",
"0	c #71713A",
"a	c #ADAD74",
"b	c #E1E1B2",
"c	c #EAEAC6",
"d	c #707038",
"e	c #A5A56D",
"f	c #90905A",
"g	c #E3E3C1",
"h	c #B2B291",
"i	c #B3B392",
"j	c #B4B492",
"k	c #DCDCBA",
"l	c #4C4C00",
"m	c #D3D3A5",
"n	c #D1D1AF",
"o	c #E6E6BD",
"p	c #6F6F38",
"q	c #ECECC8",
"r	c #D8D897",
"s	c #4B4B00",
"                                                                                                    ",
"                                                                                                    ",
"                                                                                                    ",
"                                                                                                    ",
"                                                                                                    ",
"                                                                                                    ",
"                                                                                                    ",
"                                                                                                    ",
"                                                                                                    ",
"                                                                                                    ",
"                                                                                                    ",
"                                                                                                    ",
"                                                  ............                                      ",
"                                                  .............                                     ",
"                                                  .............                                     ",
"                                                  .............                                     ",
"                                                  .............                                     ",
"                                                  .............                                     ",
"                                                  .............                                     ",
"                                            .........................                               ",
"                                            .........................                               ",
"                                            .........................                               ",
"                                            .........................                               ",
"                                            .........................                               ",
"                                            .........................                               ",
"                                     .............+@@@@@@@@@@@#............                         ",
"                                     .............@@@@@@@@@@@@#............                         ",
"                                     .............@@@@@@@@@@@@#............                         ",
"                                     .............@@@@@@@@@@@@#............                         ",
"                                     .............@@@@@@@@@@@@#............                         ",
"                                      $$$$$.......@@@@@@@@@@@@#$$$$$.......                         ",
"                         ............%&&&&&*......@@@@@@@@@@@@=&&&&&*............                   ",
"                         ............#@@@@@&$.....@@@@@@@@@@@@@@@@@@&$...........                   ",
"                         ............#@@@@@&$.....@@@@@@@@@@@@@@@@@@&$...........                   ",
"                         ............#@@@@@&$.....@@@@@@@@@@@@@@@@@@&$...........                   ",
"                         ............#@@@@@&$.....@@@@@@@@@@@@@@@@@@&$...........                   ",
"                         ............#@@@@@&$.....@@@@@@@@@@@@@@@@@@&$...........                   ",
"             ........... ############-@@@@@;>,,,,,@@@@@@@@@@@@@@@@@@=######............             ",
"            .............@@@@@@@@@@@@@@@@@@'))))))@@@@@@@@@@@@@@@@@@@@@@@@@.............            ",
"            .............@@@@@@@@@@@@@@@@@@'))))))@@@@@@@@@@@@@@@@@@@@@@@@@.............            ",
"            .............@@@@@@@@@@@@@@@@@@'))))))@@@@@@@@@@@@@@@@@@@@@@@@@.............            ",
"            .............@@@@@@@@@@@@@@@@@@'))))))@@@@@@@@@@@@@@@@@@@@@@@@@.............            ",
"            .............@@@@@@@@@@@@@@@@@@'))))))@@@@@@@@@@@@@@@@@@@@@@@@@.............            ",
"            >!!!!!!!!!!!!@@@@@@@@@@@@@@@@@@~{]]]]{''''''^@@@@@@@@@@@@@@@@@@!!!!!!!!!!!!/            ",
"............#++++++++++++@@@@@@@@@@@@@@@@@@@++++++/))))/'@@@@@@@@@@@@@@@@@@++++++++++++@@@@@@@      ",
"............#@@@@@@@@@@@@@@@@@@@@@@@@@@@@@@@@@@@@@))))))'@@@@@@@@@@@@@@@@@@@@@@@@@@@@@@@@@@@@@      ",
"............#@@@@@@@@@@@@@@@@@@@@@@@@@@@@@@@@@@@@@))))))'@@@@@@@@@@@@@@@@@@@@@@@@@@@@@@@@@@@@@      ",
"............#@@@@@@@@@@@@@@@@@@@@@@@@@@@@@@@@@@@@@))))))'@@@@@@@@@@@@@@@@@@@@@@@@@@@@@@@@@@@@@      ",
"............#@@@@@@@@@@@@@@@@@@@@@@@@@@@@@@@@@@@@@))))))'@@@@@@@@@@@@@@@@@@@@@@@@@@@@@@@@@@@@@      ",
"((((((......#@@@@@@@@@@@@@@@@@@@@@@@@@@@@@@@@@@@@@/))))/'@@@@@@@@@@@@@@@@@@@@@@@@_::::::::::::      ",
"<<<<<[}@@@@@@@@@@@@@@@@@@@@@@@+{)))))|@@@@@@@@@@@@@@@@@@@@@@@@#.....!+@@@@@@@@@@:1222222222222      ",
"3333345@@@@@@@@@@@@@@@@@@@@@@@+])))))|@@@@@@@@@@@@@@@@@@@@@@@@#.....!+@@@@@@@@@@:6333333333333      ",
"3333345@@@@@@@@@@@@@@@@@@@@@@@+])))))|@@@@@@@@@@@@@@@@@@@@@@@@#.....!+@@@@@@@@@@:6333333333333      ",
"3333345@@@@@@@@@@@@@@@@@@@@@@@+])))))|@@@@@@@@@@@@@@@@@@@@@@@@#.....!+@@@@@@@@@@:6333333333333      ",
"3333345@@@@@@@@@@@@@@@@@@@@@@@+])))))|@@@@@@@@@@@@@@@@@@@@@@@@#.....!+@@@@@@@@@@:6333333333333      ",
"3333347:::::_@@@@@@@@@@@@@@@@@+{)))))|+++++@@@@@@@@@@@@@@@@@@@#.....!8+++++:::::96333333333333      ",
"      066666a@@@@@@@@@@@@@@@@@@~'''''|]]]]]b@@@@@@@@@@@@@@@@@@#.....c!!!!!>d66666                   ",
"      333333e@@@@@@@@@@@@@@@@@@@@@@@@|)))))]+@@@@@@@@@@@@@@@@@#...........(<33333                   ",
"      333333e@@@@@@@@@@@@@@@@@@@@@@@@|)))))]+@@@@@@@@@@@@@@@@@#...........(<33333                   ",
"      333333e@@@@@@@@@@@@@@@@@@@@@@@@|)))))]+@@@@@@@@@@@@@@@@@#...........(<33333                   ",
"      333333e@@@@@@@@@@@@@@@@@@@@@@@@|)))))]+@@@@@@@@@@@@@@@@@#...........(<33333                   ",
"      333333e@@@@@@@@@@@@@@@@@@@@@@@@|)))))]+@@@@@@@@@@@@@@@@@#...........(<33333                   ",
"       33333feeeeea_@@@@@@@@@@@@@@@@@|)))))]+@@@@@@@@@@@@@@@@@#.....ghiiiij 33333                   ",
"            3333336:@@@@@@@@@@@@@@@@@|)))))]+@@@@@@@@@@@@@@@@@#.....kl33333                         ",
"            3333336:@@@@@@@@@@@@@@@@@|)))))]+@@@@@@@@@@@@@@@@@#.....kl33333                         ",
"            3333336:@@@@@@@@@@@@@@@@@|)))))]+@@@@@@@@@@@@@@@@@#.....kl33333                         ",
"            3333336:@@@@@@@@@@@@@@@@@|)))))]+@@@@@@@@@@@@@@@@@#.....kl33333                         ",
"            3333336:@@@@@@@@@@@@@@@@@|)))))]+@@@@@@@@@@@@@@@@@#.....kl33333                         ",
"             333330755555&&&&&&''''''|]]]]]b@@@@@@@@@@@@755555mkkkkknl33333                         ",
"                   44444[($$$$$o)))))|+++++@@@@@@@@@@@@:p444444llllll                               ",
"                   33333<(.....o)))))|@@@@@@@@@@@@@@@@@:6333333333333                               ",
"                   33333<(.....o)))))|@@@@@@@@@@@@@@@@@:6333333333333                               ",
"                   33333<(.....o)))))|@@@@@@@@@@@@@@@@@:6333333333333                               ",
"                   33333<(.....o)))))|@@@@@@@@@@@@@@@@@:6333333333333                               ",
"                   33333<q(((((o)))))|@@@@@@:::::::::::r6333333333333                               ",
"                         <<<<<[}@@@@@@@@@@@5s22222222222                                            ",
"                         3333345@@@@@@@@@@@5433333333333                                            ",
"                         3333345@@@@@@@@@@@5433333333333                                            ",
"                         3333345@@@@@@@@@@@5433333333333                                            ",
"                         3333345@@@@@@@@@@@5433333333333                                            ",
"                         3333347:::::::::::7433333333333                                            ",
"                               0666666666660                                                        ",
"                               3333333333333                                                        ",
"                               3333333333333                                                        ",
"                               3333333333333                                                        ",
"                               3333333333333                                                        ",
"                               3333333333333                                                        ",
"                                33333333333                                                         ",
"                                                                                                    ",
"                                                                                                    ",
"                                                                                                    ",
"                                                                                                    ",
"                                                                                                    ",
"                                                                                                    ",
"                                                                                                    ",
"                                                                                                    ",
"                                                                                                    ",
"                                                                                                    ",
"                                                                                                    ",
"                                                                                                    "};
