/* XPM */
static char * door_open_xpm[] = {
"16 16 78 1",
" 	c #000000",
".	c #FDFDFD",
"+	c #FFFFFF",
"@	c #E4E4E4",
"#	c #D4D4D4",
"$	c #FBFBFB",
"%	c #FCFCFC",
"&	c #F5F5F5",
"*	c #3B4243",
"=	c #2E3435",
"-	c #EFEFEF",
";	c #F6F6F7",
">	c #212425",
",	c #373A3B",
"'	c #3B4143",
")	c #434A4C",
"!	c #363E3F",
"~	c #F1F1F1",
"{	c #D3D3D3",
"]	c #2D3436",
"^	c #3F4547",
"/	c #464D4F",
"(	c #3A4345",
"_	c #F4F4F4",
":	c #FEFEFE",
"<	c #B0B1B4",
"[	c #1F2426",
"}	c #41484A",
"|	c #464E50",
"1	c #495456",
"2	c #4E5A5D",
"3	c #505E61",
"4	c #373E41",
"5	c #E1E1E1",
"6	c #F6F6F6",
"7	c #1A1D1D",
"8	c #313536",
"9	c #323738",
"0	c #282D2E",
"a	c #42494B",
"b	c #454C4E",
"c	c #4A5456",
"d	c #424749",
"e	c #323637",
"f	c #33393A",
"g	c #CDCDCD",
"h	c #485153",
"i	c #4D585B",
"j	c #4C585B",
"k	c #4A5658",
"l	c #394243",
"m	c #D3D3D5",
"n	c #394041",
"o	c #474E51",
"p	c #2B3030",
"q	c #1F2223",
"r	c #262B2C",
"s	c #191D1E",
"t	c #1C2021",
"u	c #292E2F",
"v	c #4D595B",
"w	c #1C2121",
"x	c #3E4546",
"y	c #414648",
"z	c #3E4244",
"A	c #3E4344",
"B	c #414749",
"C	c #4F5B5E",
"D	c #33383A",
"E	c #434749",
"F	c #1D2122",
"G	c #D4D4D5",
"H	c #2D3234",
"I	c #444B4D",
"J	c #FAFAFA",
"K	c #D6D7D8",
"L	c #E7E7E8",
"M	c #020202",
"    .+@#$%&     ",
"**= -.;++++ >,'*",
"))! ++~$+{+ ]^))",
"//( %$_:++< [}|1",
"234 5+6++++ 7890",
"a)b    ++++     ",
"//cdef +++++g++ ",
"/////h ++++++++ ",
"/////i ++++++++ ",
"cjk((l +m++++++ ",
"cn     +++      ",
"op +++++++ qrstu",
"vw ++++++< xyzAB",
"Ct <+++++< DE///",
"3F #+G++++ HI///",
"   J++++KLM     "};
