/* XPM */
static char * door_xpm[] = {
"16 16 117 2",
"  	c #3B4243",
". 	c #3A3D3E",
"+ 	c #3A3E3F",
"@ 	c #3B3F41",
"# 	c #3A3F40",
"$ 	c #383F40",
"% 	c #191A1B",
"& 	c #212526",
"* 	c #394041",
"= 	c #3B3E40",
"- 	c #3A4142",
"; 	c #393D3E",
"> 	c #3B4143",
", 	c #3C4344",
"' 	c #141414",
") 	c #212425",
"! 	c #373A3B",
"~ 	c #3E4546",
"{ 	c #414547",
"] 	c #434A4C",
"^ 	c #454F51",
"/ 	c #1A1C1D",
"( 	c #2D3436",
"_ 	c #3F4547",
": 	c #485153",
"< 	c #43484A",
"[ 	c #464D4F",
"} 	c #4A5658",
"| 	c #191B1C",
"1 	c #1F2426",
"2 	c #41484A",
"3 	c #464E50",
"4 	c #495456",
"5 	c #4A5557",
"6 	c #485052",
"7 	c #4D585B",
"8 	c #464D4E",
"9 	c #495355",
"0 	c #4C5759",
"a 	c #4E5A5D",
"b 	c #505E61",
"c 	c #475053",
"d 	c #313636",
"e 	c #1A1D1D",
"f 	c #313536",
"g 	c #323738",
"h 	c #343B3C",
"i 	c #4F5B5E",
"j 	c #454A4D",
"k 	c #414446",
"l 	c #424648",
"m 	c #42494B",
"n 	c #454C4E",
"o 	c #25292A",
"p 	c #1A1D1E",
"q 	c #1B1E1F",
"r 	c #161919",
"s 	c #3C4446",
"t 	c #43474A",
"u 	c #474E50",
"v 	c #43494B",
"w 	c #4A5456",
"x 	c #424749",
"y 	c #414647",
"z 	c #373D3E",
"A 	c #0D0E0F",
"B 	c #374041",
"C 	c #424547",
"D 	c #3F4648",
"E 	c #0F1111",
"F 	c #3C4345",
"G 	c #131414",
"H 	c #363C3D",
"I 	c #42484A",
"J 	c #4C585B",
"K 	c #393F40",
"L 	c #151616",
"M 	c #353B3D",
"N 	c #4B5557",
"O 	c #505D60",
"P 	c #303637",
"Q 	c #2D3132",
"R 	c #232728",
"S 	c #272C2D",
"T 	c #2A2E2F",
"U 	c #1C1C1C",
"V 	c #4B5658",
"W 	c #474E51",
"X 	c #2B3030",
"Y 	c #0B0E0E",
"Z 	c #1F2223",
"` 	c #262B2C",
" .	c #222728",
"..	c #1C2021",
"+.	c #292E2F",
"@.	c #454A4C",
"#.	c #4D595B",
"$.	c #1C2121",
"%.	c #141819",
"&.	c #414648",
"*.	c #3E4244",
"=.	c #3E4344",
"-.	c #414749",
";.	c #171A1B",
">.	c #434749",
",.	c #444B4D",
"'.	c #1D2122",
").	c #0E1010",
"!.	c #424748",
"~.	c #454B4D",
"{.	c #495254",
"].	c #272A2A",
"^.	c #0F1010",
"/.	c #3A4041",
"(.	c #444A4C",
"_.	c #4A5357",
":.	c #4A5356",
"  . + @ # $ % & * . . . = + # - ",
"; >       , ' ) ! >           ~ ",
"{ ] ] ] ] ^ / ( _ ] ] ] ] ] ] : ",
"< [ [ [ [ } | 1 2 3 4 5 6 [ [ 7 ",
"8 9 0 a b c d e f g h * 6 i b 9 ",
"j k l m ] n $ o p q r s t l ] u ",
"v [ [ [ [ w x y m z A B C [ [ w ",
"v [ [ [ [ [ [ [ : D E $ l [ [ 7 ",
"< [ [ [ [ [ [ [ 7 F G H I [ [ 0 ",
"v [ [ w J } } } 4 K L M m [ [ 7 ",
"8 N O w * P Q R S T U - n V b 9 ",
"j k m W X Y Z `  ...+.* @.l ] u ",
"v [ [ #.$.%.~ &.*.=.-.m @.[ [ w ",
"] [ [ i ..;.D >.[ [ [ [ [ [ [ 7 ",
",.[ [ b '.).F ,.[ [ [ [ [ [ u 7 ",
"!.~.{.j ].^./.(.[ _.6 :.9 9 :.< "};
