/* XPM */
static char * floor_xpm[] = {
"16 16 76 1",
" 	c #D2D2D3",
".	c #B5B6B8",
"+	c #A7A7AB",
"@	c #A6A6AA",
"#	c #AAABAE",
"$	c #8B8B90",
"%	c #8B8C91",
"&	c #8C8D92",
"*	c #8D8D92",
"=	c #A9AAAD",
"-	c #CBCBCD",
";	c #4C4F5C",
">	c #5B5E69",
",	c #474957",
"'	c #C0C1C4",
")	c #D2D2D4",
"!	c #94959B",
"~	c #D2D3D4",
"{	c #545763",
"]	c #494C59",
"^	c #BFC0C2",
"/	c #4B4E5B",
"(	c #555864",
"_	c #4A4C59",
":	c #A1A2A7",
"<	c #BBBBBE",
"[	c #5E606A",
"}	c #464855",
"|	c #484A57",
"1	c #95969B",
"2	c #BABABD",
"3	c #494B58",
"4	c #494B59",
"5	c #ACADB1",
"6	c #BDBDC0",
"7	c #555763",
"8	c #5C5E6A",
"9	c #61646F",
"0	c #50525E",
"a	c #5C5F6A",
"b	c #AEAFB3",
"c	c #B5B5B7",
"d	c #4A4D5A",
"e	c #4B4D5A",
"f	c #474856",
"g	c #474956",
"h	c #5D5E68",
"i	c #ADADB0",
"j	c #464856",
"k	c #ABABAF",
"l	c #AEAEB1",
"m	c #5A5D69",
"n	c #484B58",
"o	c #CACACC",
"p	c #BEBEC1",
"q	c #424352",
"r	c #424351",
"s	c #BDBEC0",
"t	c #C2C3C5",
"u	c #C2C2C5",
"v	c #8A8B90",
"w	c #C1C1C3",
"x	c #B4B4B7",
"y	c #B9BABD",
"z	c #B8B8BB",
"A	c #AAABAF",
"B	c #CECED0",
"C	c #DFE0E1",
"D	c #E4E4E6",
"E	c #CFCFD1",
"F	c #D6D7D8",
"G	c #E7E7E8",
"H	c #C7C7C9",
"I	c #BABBBE",
"J	c #B2B3B7",
"K	c #B1B1B5",
" ..++@+#$%&&%&*=",
"-;;;;;;>,;;;;;;'",
");;;;;;>,;;;;;;!",
"~;;;;;;{];;;;;;^",
"@;;;]/;(_;;;;;;:",
"<[;;/}/>|;;;;;;1",
"2[;;;34(;;;;;;;5",
"6{7>(>890>{(7>ab",
"c],d_eddfdg;gdh<",
"i;;;;;;;j;;;;;[k",
"l;;;;;;m_n4;;;;o",
"p;;;;;;{qr;;;;;-",
"s;;;;;;(f/;;;;;t",
"p;;;;;;>|;;;;;;u",
"v4;;;;;>,;;;;;;w",
"xyzABCDEFGHHIJKb"};
