/* XPM */
static char * floor_xpm[] = {
"16 16 40 1",
" 	c #414251",
".	c #494B58",
"+	c #484B58",
"@	c #454755",
"#	c #545763",
"$	c #434452",
"%	c #525460",
"&	c #4C4F5C",
"*	c #5B5E69",
"=	c #474957",
"-	c #565965",
";	c #464755",
">	c #5C5F6B",
",	c #494C59",
"'	c #4E515D",
")	c #4B4E5B",
"!	c #555864",
"~	c #4A4C59",
"{	c #464855",
"]	c #484A57",
"^	c #5D606B",
"/	c #494B59",
"(	c #555763",
"_	c #5C5E6A",
":	c #61646F",
"<	c #50525E",
"[	c #5C5F6A",
"}	c #636671",
"|	c #414250",
"1	c #4A4D5A",
"2	c #4B4D5A",
"3	c #474856",
"4	c #474956",
"5	c #464856",
"6	c #5A5D69",
"7	c #424352",
"8	c #424351",
"9	c #454754",
"0	c #636670",
"a	c #646772",
" .++.@.#$@++@+.%",
"+&&&&&&*=&&&&&&-",
";&&&&&&*=&&&&&&>",
"+&&&&&&#,&&&&&&'",
"@&&&,)&!~&&&&&&>",
"&&&&){)*]&&&&&&^",
".&&&&./!&&&&&&&^",
" #(*!*_:<*#!(*[}",
"|,=1~211314&412'",
"@&&&&&&&5&&&&&&!",
".&&&&&&6~+/&&&&-",
"+&&&&&&#78&&&&&>",
"9&&&&&&!3)&&&&&^",
"+&&&&&&*]&&&&&&>",
"8/&&&&&*=&&&&&&-",
"8_!-^->0][-->>-a"};
