/* XPM */
static char * wall_xpm[] = {
"16 16 3 1",
" 	c #252538",
".	c #48495C",
"+	c #606473",
"            .   ",
" +++ ++++++ +++ ",
" +++ ++++++ +++ ",
"    +      +    ",
" +++++++ +++..+ ",
" +++++++ +..+++ ",
"        +       ",
" ++. +++++++ .+ ",
" +++ ++++ ++ ++ ",
"  + .    +  +   ",
" + ... ++++++ + ",
" ++++. ++++++ + ",
"      +      +  ",
" ..+++++ ++++++ ",
" +++++++ ++++++ ",
"                "};
