/* XPM */
static char * wall_xpm[] = {
"16 16 55 1",
" 	c #303031",
".	c #3C3C3D",
"+	c #3F3F3F",
"@	c #313133",
"#	c #464647",
"$	c #4B4B4C",
"%	c #434344",
"&	c #3D3D3E",
"*	c #414142",
"=	c #39393A",
"-	c #353536",
";	c #3B3B3C",
">	c #333334",
",	c #4E4E51",
"'	c #606473",
")	c #252538",
"!	c #797C86",
"~	c #5C606E",
"{	c #38383A",
"]	c #3C3C3E",
"^	c #48484A",
"/	c #363638",
"(	c #48495C",
"_	c #4B4B4D",
":	c #292929",
"<	c #3E3E3F",
"[	c #212133",
"}	c #444445",
"|	c #2E2E30",
"1	c #585C6A",
"2	c #515152",
"3	c #202024",
"4	c #343436",
"5	c #4D4D4E",
"6	c #424243",
"7	c #515153",
"8	c #434346",
"9	c #747781",
"0	c #505051",
"a	c #3E3E40",
"b	c #232336",
"c	c #55555D",
"d	c #404041",
"e	c #2D2D2F",
"f	c #454658",
"g	c #515462",
"h	c #555866",
"i	c #545866",
"j	c #525663",
"k	c #60626A",
"l	c #313132",
"m	c #4C4C4D",
"n	c #2A2A2B",
"o	c #2A2A2A",
"p	c #363637",
" .+@#$%&*=--;+=>",
",''')!''~'')''~{",
",''')'''''')''']",
"^)))'))))))')))$",
"/''''''')'''(('_",
":''''''')'(('''.",
"<[))))))')))))[}",
"|1'()''''''')(12",
"31'')'''')'')''_",
"4[')())))'))'))5",
"61)((()'''''')!7",
"8~'''()'''''')90",
"ab))))'))))))'cd",
"ef(''''')'''''~5",
"#ghii~~~b~'~1jk$",
"l_m_}..dd}. nop#"};
