/* XPM */
static char *result[] = {
/* columns rows colors chars-per-pixel */
"32 32 162 2 ",
"   c #222222",
".  c #212222",
"X  c #262524",
"o  c #443838",
"O  c #443837",
"+  c #483B3A",
"@  c #262424",
"#  c #262525",
"$  c #2A2727",
"%  c #453938",
"&  c #443938",
"*  c #272525",
"=  c #2B2827",
"-  c #2B2828",
";  c #252424",
":  c #403635",
">  c #69534D",
",  c #6E5650",
"<  c #493B3A",
"1  c #4D3F3D",
"2  c #735952",
"3  c #785D56",
"4  c #725852",
"5  c #775C55",
"6  c #473A39",
"7  c #413534",
"8  c #403534",
"9  c #493C3B",
"0  c #413635",
"q  c #0E0C0C",
"w  c #070606",
"e  c #0F0C0C",
"r  c #3A2F2F",
"t  c #0D090B",
"y  c #060305",
"u  c black",
"i  c #382131",
"p  c #372030",
"a  c #4E3F3D",
"s  c #725952",
"d  c #785D55",
"f  c #070605",
"g  c #070406",
"h  c #3E2436",
"j  c #060505",
"k  c #392F2E",
"l  c #403433",
"z  c #6D554F",
"x  c #423635",
"c  c #0D0C0B",
"v  c #4C3E3C",
"b  c #4D3E3D",
"n  c #3F2437",
"m  c #0E080C",
"M  c #3A302F",
"N  c #3C3030",
"B  c #1C0E0F",
"V  c #170A0B",
"C  c #171516",
"Z  c #45283C",
"A  c #3D2435",
"S  c #0B0809",
"D  c #1A0C0D",
"F  c #AD444E",
"G  c #C25A63",
"H  c #BFB3B4",
"J  c #1A0D0E",
"K  c #0B090A",
"L  c #3F2537",
"P  c #6E5550",
"I  c #413535",
"U  c #382030",
"Y  c #3A2232",
"T  c #1A181A",
"R  c #2C1F20",
"E  c #C55C66",
"W  c #DB727C",
"Q  c #D8CCCD",
"!  c #DB737C",
"~  c #C55B64",
"^  c #2C1315",
"/  c #1A0B0E",
"(  c #3A2131",
")  c #0D080C",
"_  c #0D070B",
"`  c #1B181A",
"'  c gray67",
"]  c #C3C2C2",
"[  c #D4C7C8",
"{  c #D7CACB",
"}  c #D7D5D5",
"|  c #D8CBCC",
" . c #D5BBBE",
".. c #1C0C0F",
"X. c #060406",
"o. c #0E0C0B",
"O. c #050204",
"+. c #171515",
"@. c #C0B4B5",
"#. c #D9CDCE",
"$. c gray84",
"%. c #D4D6D6",
"&. c #C6CBCE",
"*. c #C4C9CD",
"=. c #C4CBCE",
"-. c #C6BFC4",
";. c #D9717B",
":. c #C35A63",
">. c #170B0C",
",. c #C6CCCF",
"<. c #527893",
"1. c #416C8B",
"2. c #527792",
"3. c #C9C1C6",
"4. c #C1B4B5",
"5. c #050404",
"6. c #060606",
"7. c #C4BEC2",
"8. c #416B89",
"9. c #2E5E81",
"0. c #3E6A88",
"q. c #B0B6BA",
"w. c #ACACAC",
"e. c #1B1A1A",
"r. c #0E0B0B",
"t. c #3C302F",
"y. c #C65B65",
"u. c #C96673",
"i. c #436181",
"p. c #2F6183",
"a. c #316184",
"s. c #2E5977",
"d. c #191F22",
"f. c #1B1A19",
"g. c #3C3130",
"h. c #0C0B0B",
"j. c #AE454E",
"k. c #B24E5B",
"l. c #3B5571",
"z. c #2A5674",
"x. c #2B5675",
"c. c #274D68",
"v. c #0A0D10",
"b. c #0D0A0A",
"n. c #15090A",
"m. c #070A0D",
"M. c #050A0E",
"N. c #040A0D",
"B. c #0B0F12",
"V. c #3A3030",
"C. c #070505",
"Z. c #0F0C0B",
"A. c gray13",
"S. c #433837",
"D. c #473B3A",
"F. c #2F2B2A",
"G. c #524240",
"H. c #6E564F",
"J. c #715852",
"K. c #765C55",
"L. c #785C55",
"P. c white",
/* pixels */
"        . X o o X .         . X O + + + + O @ @ o o X .     . . ",
"    @ # X $ % % $ X # # # # X $ & + + + + & $ $ % % $ X # * = - ",
". ; : o O & + + & O O O O O O & + + + + + + & & + + & O O + > , ",
"X $ % < + + + + + + + + + + + + + + + + + + + + + + + + + 1 2 3 ",
"O & + + + + + + + + + + + + + + + + + + + + + + + + + + + 1 4 5 ",
"+ + + + + + + + + + + + + + + + + + + + + + + + + + + + + 1 4 5 ",
"+ + + + + + + < < + + + + + + + + + + + + + + < < + + + + 1 4 5 ",
"O & + + + 6 7 8 8 7 6 + + + + + + + + + + 6 7 8 8 7 6 + + 1 4 5 ",
"@ $ & + 9 0 q w w e 7 + + + + + + + + + + 7 e w w q 0 9 + 1 4 5 ",
"@ $ & 6 0 r t y u w 8 < + + + + + + + + < 8 w u y t r 0 6 1 4 5 ",
"o % + 7 q t i p y w 7 9 + + + < < < < + < 8 w y p i t q 7 a s d ",
"o % + 8 f g h h g j k 0 6 6 7 8 8 8 8 7 + 8 w g h h g f l 1 z s ",
"X $ % 8 w g h h g u j q x x c j j j j c x 7 w g h h g w 8 9 v b ",
". X & 8 w g h n m g g t M N B V C C V B N M t m n h g w 8 9 v b ",
"  # & 8 f g h Z h A h i S D F G H H G F J K i L Z h g f l 1 P 2 ",
"  # & I q t U n Z Z L Y T R E W Q Q ! ~ ^ / ( h h U t q 7 1 P 2 ",
". X O 6 0 r t ) L L _ ` ' ] [ { } } |  .~ F ..X.g t r 0 6 < v b ",
"X $ & + 9 0 o.t i p O.+.@.#.$.%.&.*.=.-.;.:.>.u j q 0 9 + < v b ",
"O & + + + 6 0 r t y u >.G ! | ,.<.1.1.2.3.4.+.5.k 0 6 + + b z s ",
"+ + + + + + 9 0 q w 6.B F ~  .7.8.9.9.0.q.w.e.r.0 9 + + + 1 s d ",
"+ + + + + + + 6 7 8 8 t.J ^ y.u.i.p.a.s.d.f.g.I 6 + + + + 1 s d ",
"O & + + + + + + + < 9 0 h.J j.k.l.z.x.c.v.b.I 9 + + + + + b z s ",
"X $ & + + + + + + + + 6 0 t.B n.m.M.N.B.V.0 6 + + + + + + < b 1 ",
". X O + + + + + + + + + 9 0 c j f f C.Z.0 9 + + + + + + + + + + ",
"  # O + + + + + + + + + + 6 7 8 8 8 8 7 6 + + + + + + + + + + + ",
"  # O + + + + + + + + + + + + < < < < + + + + + + + + + + < b 1 ",
"  # O + + + + + + + + + + + + + + + + + + + + + + + + + + b z s ",
"  # O + + + + + + + + + + + + + + + + + + + + + + + + + + 1 s d ",
"A.@ S.+ + + + + + + + + + + + + + + + + + + + + + + + + D.b 4 5 ",
"= F.9 1 1 b < + + < b b < < b 1 1 1 1 1 1 b < < b 1 1 1 b G.s 5 ",
"H., J.4 s z b + + b P P v v z s 4 4 4 4 s z v v z s 4 4 4 s K.5 ",
"L.L.5 5 d s 1 + + 1 2 2 b b s d 5 5 5 5 d s b b s d 5 5 5 5 5 5 "
};
