/* XPM */
static char *result[] = {
/* columns rows colors chars-per-pixel */
"32 32 164 2 ",
"   c #222222",
".  c #212222",
"X  c #262524",
"o  c #443838",
"O  c #443837",
"+  c #483B3A",
"@  c #262424",
"#  c #262525",
"$  c #2A2727",
"%  c #453938",
"&  c #443938",
"*  c #272525",
"=  c #2B2827",
"-  c #2B2828",
";  c #252424",
":  c #403635",
">  c #69534D",
",  c #6E5650",
"<  c #493B3A",
"1  c #4D3F3D",
"2  c #735952",
"3  c #785D56",
"4  c #725852",
"5  c #775C55",
"6  c #473A39",
"7  c #413534",
"8  c #403534",
"9  c #493C3B",
"0  c #413635",
"q  c #0E0C0C",
"w  c #070606",
"e  c #0F0C0C",
"r  c #3A2F2F",
"t  c #0D090B",
"y  c #060305",
"u  c black",
"i  c #0E0C0B",
"p  c #382131",
"a  c #382030",
"s  c #0D070B",
"d  c #382031",
"f  c #423635",
"g  c #3A302F",
"h  c #725952",
"j  c #785D55",
"k  c #070605",
"l  c #070406",
"z  c #3E2436",
"x  c #3A2F2E",
"c  c #060505",
"v  c #4D3E3D",
"b  c #6D554F",
"n  c #0D0C0B",
"m  c #060606",
"M  c #4C3E3C",
"N  c #3F2437",
"B  c #0E080C",
"V  c #3C3030",
"C  c #1C0E0F",
"Z  c #170A0B",
"A  c #171516",
"S  c #170B0C",
"D  c #150809",
"F  c #020101",
"G  c #45283C",
"H  c #3F2537",
"J  c #0B0809",
"K  c #1A0C0D",
"L  c #AD444E",
"P  c #C25A63",
"I  c #BFB3B4",
"U  c #C35A63",
"Y  c #AC434D",
"T  c #130708",
"R  c #050305",
"E  c #6E5550",
"W  c #3A2232",
"Q  c #1A181A",
"!  c #2C1F20",
"~  c #C55C66",
"^  c #DB727C",
"/  c #D8CCCD",
"(  c #DB737C",
")  c #C55B64",
"_  c #2D1316",
"`  c #1A0C0F",
"'  c #3A2131",
"]  c #372030",
"[  c #1B181A",
"{  c gray67",
"}  c #C3C2C2",
"|  c #D4C7C8",
" . c #D7CACB",
".. c #D7D5D5",
"X. c #D8CBCC",
"o. c #D5BBBE",
"O. c #1C0C0F",
"+. c #050204",
"@. c #171515",
"#. c #C0B4B5",
"$. c #D9CDCE",
"%. c gray84",
"&. c #D4D6D6",
"*. c #C6CBCE",
"=. c #C4C9CD",
"-. c #C4CBCE",
";. c #C6BFC4",
":. c #D9717B",
">. c #C6CCCF",
",. c #527893",
"<. c #416C8B",
"1. c #527792",
"2. c #C9C1C6",
"3. c #C1B4B5",
"4. c #050404",
"5. c #392F2E",
"6. c #C4BEC2",
"7. c #416B89",
"8. c #2E5E81",
"9. c #3E6A88",
"0. c #B0B6BA",
"q. c #ACACAC",
"w. c #1B1A1A",
"e. c #0E0B0B",
"r. c #3C302F",
"t. c #1A0D0E",
"y. c #2C1315",
"u. c #C65B65",
"i. c #C96673",
"p. c #436181",
"a. c #2F6183",
"s. c #316184",
"d. c #2E5977",
"f. c #191F22",
"g. c #1B1A19",
"h. c #3C3130",
"j. c #413535",
"k. c #0C0B0B",
"l. c #AE454E",
"z. c #B24E5B",
"x. c #3B5571",
"c. c #2A5674",
"v. c #2B5675",
"b. c #274D68",
"n. c #0A0D10",
"m. c #0D0A0A",
"M. c #15090A",
"N. c #070A0D",
"B. c #050A0E",
"V. c #040A0D",
"C. c #0B0F12",
"Z. c #3A3030",
"A. c #070505",
"S. c #0F0C0B",
"D. c gray13",
"F. c #433837",
"G. c #473B3A",
"H. c #2F2B2A",
"J. c #524240",
"K. c #6E564F",
"L. c #715852",
"P. c #765C55",
"I. c #785C55",
"U. c white",
/* pixels */
"        . X o o X .         . X O + + + + O @ @ o o X .     . . ",
"    @ # X $ % % $ X # # # # X $ & + + + + & $ $ % % $ X # * = - ",
". ; : o O & + + & O O O O O O & + + + + + + & & + + & O O + > , ",
"X $ % < + + + + + + + + + + + + + + + + + + + + + + + + + 1 2 3 ",
"O & + + + + + + + + + < < + + + + + + < < + + + + + + + + 1 4 5 ",
"+ + + + + + + + + 6 7 8 8 7 6 + + 6 7 8 8 7 6 + + + + + + 1 4 5 ",
"+ + + + + + + + 9 0 q w w e 7 + + 7 e w w q 0 9 + + + + + 1 4 5 ",
"O & + + + + + 6 0 r t y u w 8 < < 8 w u y t r 0 6 + + + + 1 4 5 ",
"@ $ & + + + 9 0 i t p a y w 8 < < 8 w y a p t i 0 9 + + + 1 4 5 ",
"@ $ & + + 6 0 r t s p p t q 7 + + 7 q t p p s t r 0 6 + + 1 4 5 ",
"o % + + + 7 q t p d s t r 0 + < < + f g t s d p t q 7 + + 1 h j ",
"o % + + < 8 k l z z l w 7 + 7 8 8 8 7 x c l z z l k 8 < + v b h ",
"X $ & + < 8 w l z z l w 7 f n c c c m c u l z z l w 8 < + < M v ",
". X O + < 8 w l z N B t g V C Z A A S D F l z z l w 8 < + < M v ",
"  # O + < 8 w l z G H p J K L P I I U Y T R z z l w 8 < + v E 2 ",
"  # O + < 8 w l z G N W Q ! ~ ^ / / ( ) _ ` ' ] y w 8 < + v E 2 ",
". X O + < 8 k l z H s [ { } |  .....X.o.) L O.R u w 8 < + < M v ",
"X $ & + + 7 q t p ] +.@.#.$.%.&.*.=.-.;.:.U S u c e 7 + + < M v ",
"O & + + + 6 0 r t y u S P ( X.>.,.<.<.1.2.3.@.4.5.0 6 + + v b h ",
"+ + + + + + 9 0 q w m C L ) o.6.7.8.8.9.0.q.w.e.0 9 + + + 1 h j ",
"+ + + + + + + 6 7 8 8 r.t.y.u.i.p.a.s.d.f.g.h.j.6 + + + + 1 h j ",
"O & + + + + + + + < 9 0 k.t.l.z.x.c.v.b.n.m.j.9 + + + + + v b h ",
"X $ & + + + + + + + + 6 0 r.C M.N.B.V.C.Z.0 6 + + + + + + < v 1 ",
". X O + + + + + + + + + 9 0 n c k k A.S.0 9 + + + + + + + + + + ",
"  # O + + + + + + + + + + 6 7 8 8 8 8 7 6 + + + + + + + + + + + ",
"  # O + + + + + + + + + + + + < < < < + + + + + + + + + + < v 1 ",
"  # O + + + + + + + + + + + + + + + + + + + + + + + + + + v b h ",
"  # O + + + + + + + + + + + + + + + + + + + + + + + + + + 1 h j ",
"D.@ F.+ + + + + + + + + + + + + + + + + + + + + + + + + G.v 4 5 ",
"= H.9 1 1 v < + + < v v < < v 1 1 1 1 1 1 v < < v 1 1 1 v J.h 5 ",
"K., L.4 h b v + + v E E M M b h 4 4 4 4 h b M M b h 4 4 4 h P.5 ",
"I.I.5 5 j h 1 + + 1 2 2 v v h j 5 5 5 5 j h v v h j 5 5 5 5 5 5 "
};
