/* XPM */
static char *result[] = {
/* columns rows colors chars-per-pixel */
"32 32 151 2 ",
"   c #222222",
".  c #212222",
"X  c #262524",
"o  c #443838",
"O  c #443837",
"+  c #483B3A",
"@  c #262424",
"#  c #262525",
"$  c #2A2727",
"%  c #453938",
"&  c #443938",
"*  c #272525",
"=  c #2B2827",
"-  c #2B2828",
";  c #252424",
":  c #403635",
">  c #69534D",
",  c #6E5650",
"<  c #493B3A",
"1  c #4D3F3D",
"2  c #735952",
"3  c #785D56",
"4  c #725852",
"5  c #775C55",
"6  c #473A39",
"7  c #413534",
"8  c #403534",
"9  c #493C3B",
"0  c #413635",
"q  c #0D0C0B",
"w  c #060505",
"e  c #3C302F",
"r  c #1C0E0F",
"t  c #170A0B",
"y  c #171516",
"u  c #0F0C0C",
"i  c #070606",
"p  c #050404",
"a  c #1B0D0E",
"s  c #AD444E",
"d  c #C25A63",
"f  c #BFB3B4",
"g  c #1A0D0E",
"h  c #0C0B0B",
"j  c #725952",
"k  c #785D55",
"l  c #392F2E",
"z  c #020202",
"x  c #131414",
"c  c #2C2021",
"v  c #C55C66",
"b  c #DB727C",
"n  c #D8CCCD",
"m  c #DB737C",
"M  c #C55B64",
"N  c #2C1315",
"B  c #4D3E3D",
"V  c #6D554F",
"C  c #0E0C0C",
"Z  c black",
"A  c #151515",
"S  c #AAABAB",
"D  c #C3C2C2",
"F  c #D4C7C8",
"G  c #D7CACB",
"H  c #D7D5D5",
"J  c #D8CBCC",
"K  c #D5BBBE",
"L  c #0E0C0B",
"P  c #4C3E3C",
"I  c #3A2F2F",
"U  c #0D090B",
"Y  c #060305",
"T  c #171616",
"R  c #C0B4B5",
"E  c #D9CDCE",
"W  c gray84",
"Q  c #D4D6D6",
"!  c #C6CBCE",
"~  c #C4C9CD",
"^  c #C4CBCE",
"/  c #C6BFC4",
"(  c #D9717B",
")  c #C35A63",
"_  c #050504",
"`  c #382131",
"'  c #372030",
"]  c #050305",
"[  c #170B0C",
"{  c #C6CCCF",
"}  c #527893",
"|  c #416C8B",
" . c #527792",
".. c #C9C1C6",
"X. c #C1B4B5",
"o. c #6E5550",
"O. c #070605",
"+. c #070406",
"@. c #3E2436",
"#. c #060406",
"$. c #150809",
"%. c #AC434D",
"&. c #C4BEC2",
"*. c #416B89",
"=. c #2E5E81",
"-. c #3E6A88",
";. c #B0B6BA",
":. c #ACACAC",
">. c #1C191B",
",. c #050204",
"<. c #020101",
"1. c #130708",
"2. c #2D1316",
"3. c #C65B65",
"4. c #C96673",
"5. c #436181",
"6. c #2F6183",
"7. c #316184",
"8. c #2E5977",
"9. c #1A1F23",
"0. c #1B181A",
"q. c #3A2333",
"w. c #040504",
"e. c #1B0E0F",
"r. c #AE454E",
"t. c #B24E5B",
"y. c #3B5571",
"u. c #2A5674",
"i. c #2B5675",
"p. c #264C67",
"a. c #03080B",
"s. c #060204",
"d. c #3C3030",
"f. c #15090A",
"g. c #070A0D",
"h. c #050A0E",
"j. c #04090C",
"k. c #000101",
"l. c #423635",
"z. c #080605",
"x. c #070505",
"c. c gray13",
"v. c #433837",
"b. c #473B3A",
"n. c #2F2B2A",
"m. c #524240",
"M. c #6E564F",
"N. c #715852",
"B. c #765C55",
"V. c #785C55",
"C. c white",
/* pixels */
"        . X o o X .         . X O + + + + O @ @ o o X .     . . ",
"    @ # X $ % % $ X # # # # X $ & + + + + & $ $ % % $ X # * = - ",
". ; : o O & + + & O O O O O O & + + + + + + & & + + & O O + > , ",
"X $ % < + + + + + + + + + + + + + + + + + + + + + + + + + 1 2 3 ",
"O & + + + + + + + + + + + + + + + + + + + + + + + + + + + 1 4 5 ",
"+ + + + + + + + + + + + + + + + + + + + + + + + + + + + + 1 4 5 ",
"+ + + + + + + + + + + + + + + < < < < + + + + + + + + + + 1 4 5 ",
"O & + + + + + + + + + + + 6 7 8 8 8 8 7 6 + + + + + + + + 1 4 5 ",
"@ $ & + + + + + + + + < 9 0 q w w w w q 0 9 + + + + + + + 1 4 5 ",
"@ $ & + + + + + + 6 7 8 8 e r t y y t r e 0 6 + + + + + + 1 4 5 ",
"o % + + + + + + 9 0 u i p a s d f f d s g h 0 9 + + + + + 1 j k ",
"o % + + + + + 6 0 l w z x c v b n n m M N g e 0 6 + + + + B V j ",
"X $ & + + + 9 0 C w Z A S D F G H H J K M s r L 0 9 + + + < P B ",
". X O + + 6 0 I U Y Z T R E W Q ! ~ ^ / ( ) t _ l 0 6 + + < P B ",
"  # O + + 7 C U ` ' ] [ ) m J { } | |  ...X.T Z w u 7 + + B o.2 ",
"  # O + < 8 O.+.@.@.#.$.%.M K &.*.=.=.-.;.:.>.,.Z i 8 < + B o.2 ",
". X O + < 8 i +.@.@.+.<.1.2.3.4.5.6.7.8.9.0.q.' Y i 8 < + < P B ",
"X $ & + < 8 i +.@.@.+.Z w.e.r.t.y.u.i.p.a.s.@.@.+.i 8 < + < P B ",
"O & + + < 8 i +.@.@.+.w l d.r f.g.h.h.j.k.+.@.@.+.i 8 < + B V j ",
"+ + + + < 8 i +.@.@.+.i 7 l.q w O.O.z.x.Z +.@.@.+.i 8 < + 1 j k ",
"+ + + + < 8 i +.@.@.+.i 8 + 7 8 8 8 7 l w +.@.@.+.i 8 < + 1 j k ",
"O & + + < 8 i +.@.@.+.i 8 < + < < < 9 7 i +.@.@.+.i 8 < + B V j ",
"X $ & + < 8 O.+.@.@.+.i 8 < + + + + < 8 i +.@.@.+.O.8 < + < B 1 ",
". X O + + 7 C U ` ' Y i 8 < + + + + < 8 i Y ' ` U C 7 + + + + + ",
"  # O + + 6 0 I U Y Z i 8 < + + + + < 8 i Z Y U I 0 6 + + + + + ",
"  # O + + + 9 0 C i i u 7 + + + + + + 7 u i i C 0 9 + + + < B 1 ",
"  # O + + + + 6 7 8 8 7 6 + + + + + + 6 7 8 8 7 6 + + + + B V j ",
"  # O + + + + + + < < + + + + + + + + + + < < + + + + + + 1 j k ",
"c.@ v.+ + + + + + + + + + + + + + + + + + + + + + + + + b.B 4 5 ",
"= n.9 1 1 B < + + < B B < < B 1 1 1 1 1 1 B < < B 1 1 1 B m.j 5 ",
"M., N.4 j V B + + B o.o.P P V j 4 4 4 4 j V P P V j 4 4 4 j B.5 ",
"V.V.5 5 k j 1 + + 1 2 2 B B j k 5 5 5 5 k j B B j k 5 5 5 5 5 5 "
};
