/* XPM */
static char *result[] = {
/* columns rows colors chars-per-pixel */
"32 32 165 2 ",
"   c #222222",
".  c #212222",
"X  c #262524",
"o  c #443838",
"O  c #443837",
"+  c #483B3A",
"@  c #262424",
"#  c #262525",
"$  c #2A2727",
"%  c #453938",
"&  c #443938",
"*  c #272525",
"=  c #2B2827",
"-  c #2B2828",
";  c #252424",
":  c #403635",
">  c #69534D",
",  c #6E5650",
"<  c #493B3A",
"1  c #4D3F3D",
"2  c #735952",
"3  c #785D56",
"4  c #725852",
"5  c #775C55",
"6  c #473A39",
"7  c #413534",
"8  c #403534",
"9  c #493C3B",
"0  c #413635",
"q  c #0D0C0B",
"w  c #060505",
"e  c #725952",
"r  c #785D55",
"t  c #3C302F",
"y  c #1C0E0F",
"u  c #170A0B",
"i  c #171516",
"p  c #4D3E3D",
"a  c #6D554F",
"s  c #0E0C0C",
"d  c #070606",
"f  c #080606",
"g  c #050404",
"h  c #1B0D0E",
"j  c #AD444E",
"k  c #C25A63",
"l  c #BFB3B4",
"z  c gray2",
"x  c #0F0C0C",
"c  c #4C3E3C",
"v  c #3A2F2F",
"b  c #0D090B",
"n  c #060305",
"m  c black",
"M  c #020202",
"N  c #131414",
"B  c #2C2021",
"V  c #C55C66",
"C  c #DB727C",
"Z  c #D8CCCD",
"A  c #DB737C",
"S  c #C55B64",
"D  c #2D1316",
"F  c #130708",
"G  c #020000",
"H  c #392F2E",
"J  c #0E0C0B",
"K  c #382131",
"L  c #372030",
"P  c #050204",
"I  c #141514",
"U  c #AAABAB",
"Y  c #C3C2C2",
"T  c #D4C7C8",
"R  c #D7CACB",
"E  c #D7D5D5",
"W  c #D8CBCC",
"Q  c #D5BBBE",
"!  c #C55B65",
"~  c #AC434D",
"^  c #150809",
"/  c #6E5550",
"(  c #0D080C",
")  c #3F2537",
"_  c #3E2436",
"`  c #171616",
"'  c #C0B4B5",
"]  c #D9CDCE",
"[  c gray84",
"{  c #D4D6D6",
"}  c #C6CBCE",
"|  c #C4C9CD",
" . c #C4CBCE",
".. c #C6BFC4",
"X. c #D9717B",
"o. c #C35A63",
"O. c #180B0C",
"+. c #413535",
"@. c #382030",
"#. c #3F2437",
"$. c #45283C",
"%. c #060406",
"&. c #170B0C",
"*. c #C6CCCF",
"=. c #527893",
"-. c #416C8B",
";. c #527792",
":. c #C9C1C6",
">. c #C1B4B5",
",. c #171515",
"<. c #070605",
"1. c #070406",
"2. c #46293D",
"3. c #46283C",
"4. c #3D2435",
"5. c #C4BEC2",
"6. c #416B89",
"7. c #2E5E81",
"8. c #3E6A88",
"9. c #B0B6BA",
"0. c #ACACAC",
"q. c #1B181A",
"w. c #0D070B",
"e. c #C65B65",
"r. c #C96673",
"t. c #436181",
"y. c #2F6183",
"u. c #316184",
"i. c #2E5977",
"p. c #191F22",
"a. c #1B1819",
"s. c #3A2232",
"d. c #403434",
"f. c #0E0A0B",
"g. c #AE454E",
"h. c #B24E5B",
"j. c #3B5571",
"k. c #2A5674",
"l. c #2B5675",
"z. c #274D68",
"x. c #0A0D10",
"c. c #0C0809",
"v. c #403433",
"b. c #4E3F3D",
"n. c #0E080C",
"m. c #15090A",
"M. c #070A0D",
"N. c #050A0E",
"B. c #040A0D",
"V. c #0B0F12",
"C. c #3A3030",
"Z. c #3A302F",
"A. c #070505",
"S. c #0F0C0B",
"D. c #423635",
"F. c gray13",
"G. c #433837",
"H. c #473B3A",
"J. c #2F2B2A",
"K. c #524240",
"L. c #6E564F",
"P. c #715852",
"I. c #765C55",
"U. c #785C55",
"Y. c white",
/* pixels */
"        . X o o X .         . X O + + + + O @ @ o o X .     . . ",
"    @ # X $ % % $ X # # # # X $ & + + + + & $ $ % % $ X # * = - ",
". ; : o O & + + & O O O O O O & + + + + + + & & + + & O O + > , ",
"X $ % < + + + + + + + + + + + + + + + + + + + + + + + + + 1 2 3 ",
"O & + + + + + + + + + + + + + + + + + + + + + + + + + + + 1 4 5 ",
"+ + + + + + + + + + + + + + + + + + + + + + + + + + + + + 1 4 5 ",
"+ + + + + + + + + + + + + + + + + + + + + + + + + + + + + 1 4 5 ",
"O & + + + + + + + + + + + + + + + + + + + + + + + + + + + 1 4 5 ",
"@ $ & + + + + + + + + + + + + < < < < + + + + + + + + + + 1 4 5 ",
"@ $ & + + + + + + + + + + 6 7 8 8 8 8 7 6 + + + + + + + + 1 4 5 ",
"o % + + + + + + + < < < 9 0 q w w w w q 0 9 < + + + + + + 1 e r ",
"o % + + + + + 6 7 8 8 8 8 t y u i i u y t 8 8 7 6 + + + + p a e ",
"X $ & + + + 9 0 s d f f g h j k l l k j h z d x 0 9 + + + < c p ",
". X O + + 6 0 v b n m M N B V C Z Z A S D F G w H 0 6 + + < c p ",
"  # O + 9 0 J b K L P I U Y T R E E W Q ! ~ ^ m w s 0 9 + p / 2 ",
"  # O 6 0 v b ( ) _ n ` ' ] [ { } |  ...X.o.O.m n b v 0 6 p / 2 ",
". X & +.s b @.#.$._ %.&.o.A W *.=.-.-.;.:.>.,.P L K b s 7 9 c p ",
"X $ % 8 <.1._ 2.3.4.%.^ ~ S Q 5.6.7.7.8.9.0.q.w.) _ 1.<.8 9 c p ",
"O & + 8 d 1.4.3.2._ 1.G F D e.r.t.y.u.i.p.a.s.#.$._ 1.d d.1 a e ",
"+ + < 8 d 1._ $.#.@.f.d z h g.h.j.k.l.z.x.c.K ) $._ 1.d v.b.e r ",
"+ + < 8 <.1._ ) n.b v 7 8 t y m.M.N.B.V.C.Z.b n.) _ 1.<.v.b.e r ",
"O & + 7 s b K L n d 7 9 9 0 q w <.<.A.S.D.7 d n L K b s 7 1 a e ",
"X $ & 6 0 v b n m d 8 < + 6 7 8 8 8 8 7 + 8 d m n b v 0 6 < p 1 ",
". X O + 9 0 s d d x 7 + + + + < < < < + < 7 x d d s 0 9 + + + + ",
"  # O + + 6 7 8 8 7 6 + + + + + + + + + + 6 7 8 8 7 6 + + + + + ",
"  # O + + + + < < + + + + + + + + + + + + + + < < + + + + < p 1 ",
"  # O + + + + + + + + + + + + + + + + + + + + + + + + + + p a e ",
"  # O + + + + + + + + + + + + + + + + + + + + + + + + + + 1 e r ",
"F.@ G.+ + + + + + + + + + + + + + + + + + + + + + + + + H.p 4 5 ",
"= J.9 1 1 p < + + < p p < < p 1 1 1 1 1 1 p < < p 1 1 1 p K.e 5 ",
"L., P.4 e a p + + p / / c c a e 4 4 4 4 e a c c a e 4 4 4 e I.5 ",
"U.U.5 5 r e 1 + + 1 2 2 p p e r 5 5 5 5 r e p p e r 5 5 5 5 5 5 "
};
