/* XPM */
static char *result[] = {
/* columns rows colors chars-per-pixel */
"29 65 76 1 ",
"  c gray73",
". c #AFAFAF",
"X c gray69",
"o c gray",
"O c gray90",
"+ c white",
"@ c gray91",
"# c #E4E4E4",
"$ c #E6E6E6",
"% c #F6F6F6",
"& c #E9E9E9",
"* c #EAEAEA",
"= c LightGray",
"- c #4F4A4D",
"; c #3E383B",
": c #3F3A3D",
"> c #3E393C",
", c #4E4A4C",
"< c #D2D2D2",
"1 c #E2E2E2",
"2 c #3D3439",
"3 c #180C12",
"4 c #1A0F15",
"5 c #180C13",
"6 c #3B3237",
"7 c #DFDFDF",
"8 c #E2E1E1",
"9 c #3E353A",
"0 c #1A0E15",
"q c #1C1117",
"w c #3C3439",
"e c #E2E1E2",
"r c #3E363A",
"t c #E1E1E1",
"y c #E0DFDF",
"u c #3F363B",
"i c #190E14",
"p c #3C3438",
"a c gray86",
"s c #393236",
"d c #190F15",
"f c #1B1217",
"g c #1B1117",
"h c #383034",
"j c gray85",
"k c #9B9A9B",
"l c #999798",
"z c #999898",
"x c #9B9A9A",
"c c gray87",
"v c gray97",
"b c gray92",
"n c #ECECEC",
"m c #ECEDEC",
"M c #D5D5D5",
"N c #555154",
"B c #454043",
"V c #464144",
"C c #464044",
"Z c #565254",
"A c gray83",
"S c #3C3338",
"D c #170C12",
"F c #403A3D",
"G c #403B3E",
"H c #413C3F",
"J c #4E4A4D",
"K c #D3D2D2",
"L c #E8E9E8",
"P c #EAEBEA",
"I c #E9EAEA",
"U c gray89",
"Y c #E7E7E7",
"T c #B4B4B4",
"R c #B1B1B1",
"E c gray70",
/* pixels */
" .XXXXXXXXXXXXXXXXXXXXXXXXXXo",
"O+++++++++++++++++++++++++++@",
"#+++++++++++++++++++++++++++$",
"#+++++++++++++++++++++++++++$",
"#+++++++++++++++++++++++++++$",
"#+++++++++++++++++++++++++++$",
"#+++++++++++++++++++++++++++$",
"#+++++++++++++++++++++++++++$",
"#++++++++%&*******&%++++++++$",
"#++++++++=-;:::::>,<++++++++$",
"#++++++++12344444567++++++++$",
"#++++++++890qqqqq4w7++++++++$",
"#++++++++890qqqqq4w7++++++++$",
"#++++++++er0qqqqq4w7++++++++$",
"#++++++++1r0qqqqq4w7++++++++$",
"#++++++++1r0qqqqq4w7++++++++$",
"#++++++++1r0qqqqq4w7++++++++$",
"#++++++++1r0qqqqq4w7++++++++$",
"#++++++++1r0qqqqq4w7++++++++$",
"#++++++++1r0qqqqq4w7++++++++$",
"#++++++++1r0qqqqq4w7++++++++$",
"#++++++++1r0qqqqq4w7++++++++$",
"#++++++++1r0qqqqq4w7++++++++$",
"#++++++++1r0qqqqq4w7++++++++$",
"#++++++++1r0qqqqq4w7++++++++$",
"#++++++++1r0qqqqq4w7++++++++$",
"#++++++++1r0qqqqq4w7++++++++$",
"#++++++++1r0qqqqq4w7++++++++$",
"#++++++++1r0qqqqq4w7++++++++$",
"#++++++++1r0qqqqq4w7++++++++$",
"#++++++++1r0qqqqq4w7++++++++$",
"#++++++++1r0qqqqq4w7++++++++$",
"#++++++++1r0qqqqq4w7++++++++$",
"#++++++++er0qqqqq4w7++++++++$",
"#++++++++t90qqqqq42y++++++++$",
"#++++++++1uiqqqqqip7++++++++$",
"#++++++++asdfffgfdhj++++++++$",
"#++++++++7klzzzlzzxc++++++++$",
"#+++++++++++++++++++++++++++$",
"#+++++++++++++++++++++++++++$",
"#+++++++++++++++++++++++++++$",
"#+++++++++++++++++++++++++++$",
"#+++++++++++++++++++++++++++$",
"#+++++++++++++++++++++++++++$",
"#+++++++++++++++++++++++++++$",
"#++++++++vbnnnnnnmbv++++++++$",
"#++++++++MNBVVVVVCZA++++++++$",
"#++++++++tSD44444D6y++++++++$",
"#++++++++t90qqqqq4w7++++++++$",
"#++++++++1r0qqqqq4p7++++++++$",
"#++++++++1r0qqqqq4w7++++++++$",
"#++++++++1r0qqqqq4w7++++++++$",
"#++++++++er0qqqqq4w7++++++++$",
"#++++++++t90qqqqq427++++++++$",
"#++++++++82344444567++++++++$",
"#++++++++=,>FGH:>;JK++++++++$",
"#++++++++%L***P*I*&%++++++++$",
"#+++++++++++++++++++++++++++$",
"#+++++++++++++++++++++++++++$",
"#+++++++++++++++++++++++++++$",
"#+++++++++++++++++++++++++++$",
"U+++++++++++++++++++++++++++$",
"U+++++++++++++++++++++++++++Y",
"#+++++++++++++++++++++++++++@",
" XX.XXTTR...XXTEX.XXXXXXXXXXo"
};
