/* XPM */
static char *result[] = {
/* columns rows colors chars-per-pixel */
"29 65 76 1 ",
"  c #838383",
". c #B1B1B1",
"X c gray69",
"o c #B2B2B2",
"O c #B4B4B4",
"+ c gray71",
"@ c #A7A8A7",
"# c #514C4F",
"$ c gray65",
"% c white",
"& c gray93",
"* c #524D4F",
"= c #A4A4A4",
"- c gray92",
"; c #A5A5A5",
": c #514C4E",
"> c #ECECEC",
", c #504B4E",
"< c #FEFEFE",
"1 c #EAEBEA",
"2 c #EAEAEA",
"3 c gray85",
"4 c #F9F9F9",
"5 c #727071",
"6 c #403A3D",
"7 c #3F3A3D",
"8 c #322B2F",
"9 c #A9A9A9",
"0 c gray98",
"q c #646062",
"w c #170C12",
"e c #1A0F15",
"r c #1B1016",
"t c #A7A7A7",
"y c #F9FAFA",
"u c #625E60",
"i c #190E14",
"p c #1C1117",
"a c #AAAAAA",
"s c #625E61",
"d c #625F61",
"f c gray66",
"g c #190F14",
"h c #1B1217",
"j c #1B1117",
"k c #1C1318",
"l c #21161C",
"z c #FDFDFD",
"x c #BDBCBC",
"c c #979697",
"v c #999898",
"b c #918F90",
"n c #484245",
"m c #EFEFEF",
"M c #9D9D9D",
"N c #EEEEEE",
"B c #F1F1F1",
"V c #423C3F",
"C c #474144",
"Z c #464144",
"A c #453F42",
"S c #565154",
"D c #D7D7D7",
"F c #1A0E15",
"G c #1A1116",
"H c #B2B1B2",
"J c #1D1419",
"K c #B3B2B3",
"L c gray70",
"P c #1B0F15",
"I c #3B3538",
"U c #3F393C",
"Y c #3E393C",
"T c #514D4F",
"R c #9B9C9B",
"E c #E9EAE9",
/* pixels */
" .XXXXXXXoOo.+O.XXXXXXXXXXX@#",
"$%%%%%%%%%%%%%%%%%%%%%%%%%%&*",
"=%%%%%%%%%%%%%%%%%%%%%%%%%%-#",
";%%%%%%%%%%%%%%%%%%%%%%%%%%-#",
";%%%%%%%%%%%%%%%%%%%%%%%%%%-#",
";%%%%%%%%%%%%%%%%%%%%%%%%%%-:",
";%%%%%%%%%%%%%%%%%%%%%%%%%%-:",
";%%%%%%%%%%%%%%%%%%%%%%%%%%>,",
"$%%%%%%%<>1222222222222222-3,",
";%%%%%%%456677777777777777768",
"9%%%%%%%0qweeeeeeeeeeeeeeeeer",
"t%%%%%%%yuipppppppppppppppppp",
"$%%%%%%%yuipppppppppppppppppp",
"a%%%%%%%0sipppppppppppppppppp",
"a%%%%%%%0dipppppppppppppppppp",
"9%%%%%%%0dipppppppppppppppppp",
";%%%%%%%0dipppppppppppppppppp",
"f%%%%%%%0dipppppppppppppppppp",
"a%%%%%%%0dipppppppppppppppppp",
"t%%%%%%%0dipppppppppppppppppp",
";%%%%%%%0dipppppppppppppppppp",
";%%%%%%%0dipppppppppppppppppp",
"=%%%%%%%0dipppppppppppppppppp",
"=%%%%%%%0dipppppppppppppppppp",
";%%%%%%%0dipppppppppppppppppp",
";%%%%%%%0dipppppppppppppppppp",
";%%%%%%%0dipppppppppppppppppp",
";%%%%%%%0dipppppppppppppppppp",
";%%%%%%%0dipppppppppppppppppp",
";%%%%%%%0dipppppppppppppppppp",
";%%%%%%%0dipppppppppppppppppp",
";%%%%%%%0dipppppppppppppppppp",
";%%%%%%%0dipppppppppppppppppp",
";%%%%%%%0dipppppppppppppppppp",
";%%%%%%%0uipppppppppppppppppp",
";%%%%%%%0uipppppppppppppppppp",
";%%%%%%%0qghhhhhhhhhhhhhhhjkl",
";%%%%%%%zxcvvvvvvvvvvvvvvvvbn",
";%%%%%%%%%%%%%%%%%%%%%%%%%%m#",
";%%%%%%%%%%%%%%%%%%%%%%%%%%-:",
";%%%%%%%%%%%%%%%%%%%%%%%%%%-:",
";%%%%%%%%%%%%%%%%%%%%%%%%%%-#",
";%%%%%%%%%%%%%%%%%%%%%%%%%%-#",
";%%%%%%%%%%%%%%%%%%%%%%%%%%-#",
"$%%%%%%%%%%%%%%%%%%%%%%%%%%-#",
"MN>>>>>>>>>>>>>>>>B%%%%%%%%-#",
"VCZZZZZZZZZZZZZCZASD%%%%%%%-#",
"eeeeeeeeeeeeeeeeeFGH%%%%%%%-#",
"ppppppppppppppppppJK%%%%%%%-#",
"ppppppppppppppppppJL%%%%%%%-#",
"ppppppppppppppppppJL%%%%%%%-#",
"ppppppppppppppppppJL%%%%%%%-#",
"ppppppppppppppppppJL%%%%%%%-#",
"ppppppppppppppppppJL%%%%%%%-#",
"Peeeeeeeeeeeeeeeeeho%%%%%%%-#",
"IU666666666666777YTD%%%%%%%-#",
"R>222222222222222Em%%%%%%%%-#",
";%%%%%%%%%%%%%%%%%%%%%%%%%%-#",
";%%%%%%%%%%%%%%%%%%%%%%%%%%-#",
";%%%%%%%%%%%%%%%%%%%%%%%%%%-#",
";%%%%%%%%%%%%%%%%%%%%%%%%%%-#",
";%%%%%%%%%%%%%%%%%%%%%%%%%%-,",
"=%%%%%%%%%%%%%%%%%%%%%%%%%%-:",
"$%%%%%%%%%%%%%%%%%%%%%%%%%%&#",
" .XXXXXXXXXXXXXXXXXXXXXXXXXt,"
};
