/* XPM */
static char *result[] = {
/* columns rows colors chars-per-pixel */
"29 65 70 1 ",
"  c gray57",
". c gray69",
"X c #ACADAC",
"o c #4D4A4C",
"O c #1A0F15",
"+ c #1C1117",
"@ c #1B1016",
"# c #2A2126",
"$ c #919091",
"% c #B2B2B2",
"& c #B1B1B1",
"* c #A4A4A4",
"= c #464144",
"- c #B6B6B6",
"; c white",
": c gray98",
"> c #545052",
", c #190E14",
"< c #241C20",
"1 c gray75",
"2 c #E9EAE9",
"3 c #454043",
"4 c #B4B4B4",
"5 c #F8F8F8",
"6 c #BEBDBD",
"7 c #E7E8E8",
"8 c #454042",
"9 c #E7E8E7",
"0 c #E7E7E7",
"q c #443F42",
"w c #444042",
"e c gray74",
"r c gray91",
"t c #474245",
"y c #E9E9E9",
"u c #4A4547",
"i c #494447",
"p c #4A4548",
"a c #484346",
"s c #535052",
"d c #241B20",
"f c #534F51",
"g c #190D14",
"h c #F9F9F9",
"j c #5E5A5C",
"k c #180F14",
"l c #1B1217",
"z c #1A1116",
"x c #271F23",
"c c #C2C1C2",
"v c gray82",
"b c #989797",
"n c #999898",
"m c #999798",
"M c #989697",
"N c #A6A5A6",
"B c #EFEFEF",
"V c gray71",
"C c gray68",
"Z c #EEEEEE",
"A c #ECECEC",
"S c #EAEBEA",
"D c #F6F6F6",
"F c #474144",
"G c #464244",
"H c #231A1F",
"J c gray",
"K c #241C21",
"L c #BEBDBE",
"P c #2A2226",
/* pixels */
" .......XoO++++++@#$%.....&*=",
"-;;;;;;;:>,++++++@<1;;;;;;;23",
"4;;;;;;;5>,++++++@<6;;;;;;;78",
"4;;;;;;;5>,++++++@<6;;;;;;;78",
"4;;;;;;;5>,++++++@<6;;;;;;;78",
"4;;;;;;;5>,++++++@<6;;;;;;;78",
"4;;;;;;;5>,++++++@<6;;;;;;;78",
"4;;;;;;;5>,++++++@<6;;;;;;;78",
"4;;;;;;;5>,++++++@<6;;;;;;;98",
"4;;;;;;;5>,++++++@<6;;;;;;;0q",
"4;;;;;;;5>,++++++@<6;;;;;;;0q",
"4;;;;;;;5>,++++++@<6;;;;;;;0q",
"4;;;;;;;5>,++++++@<6;;;;;;;0q",
"4;;;;;;;5>,++++++@<6;;;;;;;9w",
"4;;;;;;;5>,++++++@<6;;;;;;;78",
"4;;;;;;;5>,++++++@<6;;;;;;;78",
"4;;;;;;;5>,++++++@<6;;;;;;;9w",
"4;;;;;;;5>,++++++@<e;;;;;;;0q",
"4;;;;;;;5>,++++++@<6;;;;;;;0q",
"4;;;;;;;5>,++++++@<e;;;;;;;0q",
"4;;;;;;;5>,++++++@<6;;;;;;;rt",
"4;;;;;;;5>,++++++@<6;;;;;;;yu",
"4;;;;;;;5>,++++++@<6;;;;;;;yi",
"4;;;;;;;5>,++++++@<6;;;;;;;yi",
"4;;;;;;;5>,++++++@<6;;;;;;;yp",
"4;;;;;;;5>,++++++@<6;;;;;;;ra",
"4;;;;;;;5>,++++++@<6;;;;;;;r3",
"4;;;;;;;5>,++++++@<6;;;;;;;rt",
"4;;;;;;;5>,++++++@<6;;;;;;;ra",
"4;;;;;;;5>,++++++@<6;;;;;;;98",
"4;;;;;;;5>,++++++@<6;;;;;;;0q",
"4;;;;;;;5>,++++++@<6;;;;;;;98",
"4;;;;;;;5>,++++++@<6;;;;;;;9w",
"4;;;;;;;5s,++++++@<6;;;;;;;98",
"4;;;;;;;5>,++++++@de;;;;;;;78",
"4;;;;;;;5fg++++++@de;;;;;;;78",
"4;;;;;;;hjkllllllzxc;;;;;;;78",
"4;;;;;;;;vbnnnnnmMNB;;;;;;;78",
"4;;;;;;;;;;;;;;;;;;;;;;;;;;78",
"4;;;;;;;;;;;;;;;;;;;;;;;;;;78",
"4;;;;;;;;;;;;;;;;;;;;;;;;;;78",
"4;;;;;;;;;;;;;;;;;;;;;;;;;;78",
"V;;;;;;;;;;;;;;;;;;;;;;;;;;78",
"V;;;;;;;;;;;;;;;;;;;;;;;;;;78",
"V;;;;;;;;;;;;;;;;;;;;;;;;;;78",
"CZAAAAAAAAAAAAAAAASD;;;;;;;78",
"t==============FFFG1;;;;;;;78",
"OOOOOOOOOOOOOOOOO,HJ;;;;;;;78",
"+++++++++++++++++@<6;;;;;;;78",
"+++++++++++++++++@KL;;;;;;;78",
"+++++++++++++++++@<6;;;;;;;78",
"+++++++++++++++++@<6;;;;;;;78",
"+++++++++++++++++@<6;;;;;;;78",
"+++++++++++++++++@<6;;;;;;;78",
"+++++++++++++++++@<6;;;;;;;78",
"+++++++++++++++++@<6;;;;;;;78",
"+++++++++++++++++@<6;;;;;;;78",
"+++++++++++++++++@<6;;;;;;;78",
"+++++++++++++++++@<6;;;;;;;78",
"+++++++++++++++++@<6;;;;;;;78",
"+++++++++++++++++@<6;;;;;;;78",
"+++++++++++++++++@<6;;;;;;;78",
"+++++++++++++++++@de;;;;;;;0q",
"+++++++++++++++++@<1;;;;;;;y3",
"+++++++++++++++++@P %.....&*="
};
