/* XPM */
static char *result[] = {
/* columns rows colors chars-per-pixel */
"29 65 83 1 ",
"  c #ACACAC",
". c gray69",
"X c #B1B1B1",
"o c #CACACA",
"O c #D5D5D5",
"+ c white",
"@ c #F4F4F4",
"# c gray83",
"$ c gray95",
"% c #F3F3F3",
"& c #F6F6F6",
"* c #E9E9E9",
"= c #EAEAEA",
"- c gray85",
"; c #534E51",
": c #3E383B",
"> c #3F3A3D",
", c #3F393C",
"< c #494547",
"1 c #CBCBCB",
"2 c gray96",
"3 c #ECECEC",
"4 c #443B40",
"5 c #170C12",
"6 c #1A0F15",
"7 c #180D13",
"8 c #32292E",
"9 c #D3D2D3",
"0 c #ECEBEC",
"q c #453D41",
"w c #190E14",
"e c #1C1117",
"r c #332B30",
"t c #332B2F",
"y c #D3D2D2",
"u c #ECEBEB",
"i c #342C30",
"p c #D4D3D3",
"a c gray92",
"s c #453C41",
"d c #362D32",
"f c gray84",
"g c #352C31",
"h c #EBEAEB",
"j c #342B30",
"k c LightGray",
"l c #443C40",
"z c #352D32",
"x c #D6D5D5",
"c c #EAE9EA",
"v c #443C41",
"b c #463D42",
"n c #EBEAEA",
"m c #D4D3D4",
"M c #E4E4E4",
"N c #3F383C",
"B c #190F14",
"V c #1B1217",
"C c #1A1015",
"Z c #30282C",
"A c #CECECE",
"S c #E1E1E1",
"D c #9C9B9B",
"F c #989798",
"G c #999798",
"H c #999898",
"J c gainsboro",
"K c gray80",
"L c #ECEDED",
"P c #F6F7F6",
"I c #544E51",
"U c #453F42",
"Y c #464144",
"T c #464043",
"R c #514C4F",
"E c #CDCDCD",
"W c #1A0E14",
"Q c #332A2F",
"! c #322A2E",
"~ c #4E484B",
"^ c #403A3D",
"/ c #4A4648",
"( c #CCCBCB",
/* pixels */
" .X.........................o",
"O+++++++++++++++++++++++++++@",
"#+++++++++++++++++++++++++++$",
"#+++++++++++++++++++++++++++$",
"#+++++++++++++++++++++++++++%",
"#+++++++++++++++++++++++++++@",
"#+++++++++++++++++++++++++++%",
"#+++++++++++++++++++++++++++$",
"#++++++++&*=======*&++++++++%",
"#++++++++-;:>>>>>,<1++++++++2",
"#++++++++34566666789++++++++@",
"#++++++++0qweeeee6r9++++++++@",
"#++++++++0qweeeee6ty++++++++2",
"#++++++++uqweeeee6ip++++++++2",
"#++++++++asweeeee6dO++++++++@",
"#++++++++aqweeeee6df++++++++$",
"#++++++++aqweeeee6i#++++++++$",
"#++++++++asweeeee6g#++++++++%",
"#++++++++asweeeee6df++++++++%",
"#++++++++asweeeee6df++++++++%",
"#++++++++asweeeee6gO++++++++%",
"#++++++++hsweeeee6jk++++++++%",
"#++++++++=lweeeee6zx++++++++%",
"#++++++++=lweeeee6df++++++++%",
"#++++++++c4weeeee6g#++++++++%",
"#++++++++=vweeeee6jk++++++++%",
"#++++++++3bweeeee6jk++++++++%",
"#++++++++3bweeeee6jk++++++++%",
"#++++++++0bweeeee6jk++++++++%",
"#++++++++aqweeeee6jk++++++++%",
"#++++++++hsweeeee6jk++++++++%",
"#++++++++=lweeeee6ip++++++++%",
"#++++++++nsweeeee6im++++++++%",
"#++++++++aqweeeee6im++++++++%",
"#++++++++asweeeee6jk++++++++%",
"#++++++++3qweeeee6i#++++++++%",
"#++++++++MNBVVVVVCZA++++++++%",
"#++++++++SDFGHHHHGFJ++++++++%",
"#+++++++++++++++++++++++++++%",
"#+++++++++++++++++++++++++++%",
"#+++++++++++++++++++++++++++%",
"#+++++++++++++++++++++++++++%",
"#+++++++++++++++++++++++++++%",
"#+++++++++++++++++++++++++++%",
"O+++++++++++++++++++++++++++%",
"KL3333333333333333aP++++++++%",
"IUYYYYYYYYYYYYYYYTRE++++++++%",
"W66666666666666667Qm++++++++%",
"eeeeeeeeeeeeeeeee6jk++++++++%",
"eeeeeeeeeeeeeeeee6im++++++++%",
"eeeeeeeeeeeeeeeee6ip++++++++%",
"eeeeeeeeeeeeeeeee6ip++++++++%",
"eeeeeeeeeeeeeeeee6im++++++++%",
"eeeeeeeeeeeeeeeee6jk++++++++%",
"666666666666666667!k++++++++%",
"~,^^^^^^^^^^^^>>>,/(++++++++%",
"oa================*&++++++++%",
"O+++++++++++++++++++++++++++%",
"#+++++++++++++++++++++++++++%",
"#+++++++++++++++++++++++++++%",
"#+++++++++++++++++++++++++++%",
"#+++++++++++++++++++++++++++@",
"#+++++++++++++++++++++++++++%",
"O+++++++++++++++++++++++++++2",
" ...........................1"
};
