/* XPM */
static char *result[] = {
/* columns rows colors chars-per-pixel */
"29 65 21 1 ",
"  c #1C1117",
". c #1A0E14",
"X c #40373C",
"o c #AEAEAE",
"O c gray69",
"+ c #B1B1B1",
"@ c #AFAFAF",
"# c #BBBBBB",
"$ c #1A0E15",
"% c #3E353A",
"& c #E3E2E3",
"* c white",
"= c #E6E6E6",
"- c #E1E1E1",
"; c gray90",
": c #E4E4E4",
"> c #3D3539",
", c #E1E0E0",
"< c #E3E2E2",
"1 c #B0AFAF",
"2 c #BCBCBC",
/* pixels */
"                 .XoO+OOOOO@#",
"                 $%&********=",
"                 $%-********;",
"                 $%-********;",
"                 $%-********;",
"                 $%-********;",
"                 $%-********;",
"                 $%-********;",
"                 $%-********;",
"                 $%-********;",
"                 $%-********;",
"                 $%-********;",
"                 $%-********;",
"                 $%-********;",
"                 $%-********;",
"                 $%-********;",
"                 $%-********;",
"                 $%-********;",
"                 $%-********;",
"                 $%-********;",
"                 $%-********;",
"                 $%-********;",
"                 $%-********;",
"                 $%-********;",
"                 $%-********;",
"                 $%-********;",
"                 $%-********;",
"                 $%-********;",
"                 $%-********;",
"                 $%-********;",
"                 $%-********;",
"                 $%-********;",
"                 $%-********;",
"                 $%-********;",
"                 $%-********;",
"                 $%-********;",
"                 $%-********:",
"                 $%-********:",
"                 $%-********:",
"                 $%-********:",
"                 $%-********:",
"                 $%-********;",
"                 $%-********;",
"                 $%-********;",
"                 $%-********;",
"                 $%-********;",
"                 $%-********;",
"                 $%-********;",
"                 $%-********;",
"                 $%-********;",
"                 $%-********;",
"                 $%-********;",
"                 $%-********;",
"                 $%-********;",
"                 $%-********;",
"                 $%-********;",
"                 $%-********;",
"                 $%-********;",
"                 $%-********;",
"                 $%-********;",
"                 $%-********;",
"                 $%-********:",
"                 $>,********;",
"                 $%<********=",
"                 .X1OOOOOOOO2"
};
