/* XPM */
static char *result[] = {
/* columns rows colors chars-per-pixel */
"29 65 111 2 ",
"   c #C8C8C8",
".  c #AFAFAF",
"X  c gray69",
"o  c gray70",
"O  c gray71",
"+  c #B2B2B2",
"@  c #AEAEAE",
"#  c #F3F3F3",
"$  c white",
"%  c gray85",
"&  c gray95",
"*  c #D7D7D7",
"=  c gray84",
"-  c #F6F6F6",
";  c #E9E9E9",
":  c gray92",
">  c #EAEAEA",
",  c gray80",
"<  c #4A4648",
"1  c #433D40",
"2  c #443F42",
"3  c #413B3E",
"4  c #3F3A3D",
"5  c #423D40",
"6  c #575355",
"7  c #D5D5D5",
"8  c #342B30",
"9  c #180D13",
"0  c #1A0F15",
"q  c #170C12",
"w  c #42393E",
"e  c gray83",
"r  c #352C31",
"t  c #1C1117",
"y  c #190E14",
"u  c #433B3F",
"i  c #E9E8E8",
"p  c #352D31",
"a  c #E9E8E9",
"s  c #D8D7D8",
"d  c #372E33",
"f  c #F1F1F1",
"g  c #D6D5D5",
"h  c #352D32",
"j  c #433B40",
"k  c #D5D4D4",
"l  c #362D32",
"z  c #443B40",
"x  c gray94",
"c  c #D6D5D6",
"v  c #F4F4F4",
"b  c #D9D8D9",
"n  c #B3B2B3",
"m  c #9B9A9B",
"M  c #9C9B9B",
"N  c #9C9A9B",
"B  c #929192",
"V  c #271D23",
"C  c #1C1218",
"Z  c #1C1318",
"A  c #1C1217",
"S  c #21171C",
"D  c #20151B",
"F  c #1B1016",
"G  c #1C1016",
"H  c #EAE9EA",
"J  c #443C40",
"K  c #1E1419",
"L  c #1B1117",
"P  c #1B1217",
"I  c #190F14",
"U  c #3E373B",
"Y  c gray89",
"T  c #383035",
"R  c #8D8B8C",
"E  c #999899",
"W  c #999898",
"Q  c #999798",
"!  c #E1E1E1",
"~  c #3A3337",
"^  c gray88",
"/  c #1B0F15",
"(  c #3A3236",
")  c #DDDDDD",
"_  c #393236",
"`  c #D8D8D8",
"'  c #EBECEC",
"]  c #ECECEC",
"[  c gray93",
"{  c #CECECE",
"}  c #E7E7E7",
"|  c #636062",
" . c #464144",
".. c #474144",
"X. c #464043",
"o. c #454043",
"O. c #565053",
"+. c #231C20",
"@. c #1A0E14",
"#. c gray81",
"$. c #261E22",
"%. c #1C1017",
"&. c #261F23",
"*. c #DFDFDF",
"=. c gray82",
"-. c #272023",
";. c #3D363A",
":. c #A2A2A2",
">. c #B1B1B1",
",. c #989898",
"<. c #2D2529",
/* pixels */
"  . X X X X X X X X X X X X X X X X X X X o O + . @ . . @ ",
"# $ $ $ $ $ $ $ $ $ $ $ $ $ $ $ $ $ $ $ $ $ $ $ $ $ $ $ % ",
"& $ $ $ $ $ $ $ $ $ $ $ $ $ $ $ $ $ $ $ $ $ $ $ $ $ $ $ * ",
"& $ $ $ $ $ $ $ $ $ $ $ $ $ $ $ $ $ $ $ $ $ $ $ $ $ $ $ = ",
"& $ $ $ $ $ $ $ $ $ $ $ $ $ $ $ $ $ $ $ $ $ $ $ $ $ $ $ = ",
"& $ $ $ $ $ $ $ $ $ $ $ $ $ $ $ $ $ $ $ $ $ $ $ $ $ $ $ = ",
"& $ $ $ $ $ $ $ $ $ $ $ $ $ $ $ $ $ $ $ $ $ $ $ $ $ $ $ * ",
"& $ $ $ $ $ $ $ $ $ $ $ $ $ $ $ $ $ $ $ $ $ $ $ $ $ $ $ * ",
"& $ $ $ $ $ $ $ $ - ; : : : > > > : > - $ $ $ $ $ $ $ $ * ",
"& $ $ $ $ $ $ $ $ , < 1 2 2 3 4 4 5 6 % $ $ $ $ $ $ $ $ * ",
"& $ $ $ $ $ $ $ $ 7 8 9 0 0 0 0 0 q w ; $ $ $ $ $ $ $ $ * ",
"& $ $ $ $ $ $ $ $ e r 0 t t t t t y u i $ $ $ $ $ $ $ $ * ",
"& $ $ $ $ $ $ $ $ 7 p 0 t t t t t y u a $ $ $ $ $ $ $ $ * ",
"& $ $ $ $ $ $ $ $ s d 0 t t t t t y u a $ $ $ $ $ $ $ $ * ",
"f $ $ $ $ $ $ $ $ s d 0 t t t t t y u ; $ $ $ $ $ $ $ $ * ",
"f $ $ $ $ $ $ $ $ g h 0 t t t t t y j ; $ $ $ $ $ $ $ $ * ",
"f $ $ $ $ $ $ $ $ k r 0 t t t t t y j ; $ $ $ $ $ $ $ $ * ",
"f $ $ $ $ $ $ $ $ = l 0 t t t t t y z ; $ $ $ $ $ $ $ $ * ",
"x $ $ $ $ $ $ $ $ * d 0 t t t t t y z ; $ $ $ $ $ $ $ $ * ",
"f $ $ $ $ $ $ $ $ c l 0 t t t t t y z ; $ $ $ $ $ $ $ $ * ",
"& $ $ $ $ $ $ $ $ g h 0 t t t t t y z ; $ $ $ $ $ $ $ $ * ",
"& $ $ $ $ $ $ $ $ g h 0 t t t t t y z ; $ $ $ $ $ $ $ $ * ",
"& $ $ $ $ $ $ $ $ g h 0 t t t t t y z ; $ $ $ $ $ $ $ $ * ",
"& $ $ $ $ $ $ $ $ g h 0 t t t t t y z ; $ $ $ $ $ $ $ $ * ",
"x $ $ $ $ $ $ $ $ g h 0 t t t t t y z ; $ $ $ $ $ $ $ $ * ",
"f $ $ $ $ $ $ $ $ g h 0 t t t t t y z ; $ $ $ $ $ $ $ $ * ",
"v $ $ $ $ $ $ $ $ b l 0 t t t t t y z ; $ $ $ $ $ $ $ $ * ",
"n m M m m N N M M B l 0 t t t t t y z ; $ $ $ $ $ $ $ $ * ",
"V C Z C C C C Z A S D t t t t t t y z ; $ $ $ $ $ $ $ $ * ",
"F t t t t t t t t G t t t t t t t y z ; $ $ $ $ $ $ $ $ * ",
"t t t t t t t t t t t t t t t t t y z ; $ $ $ $ $ $ $ $ * ",
"t t t t t t t t t t t t t t t t t y z ; $ $ $ $ $ $ $ $ * ",
"t t t t t t t t t t t t t t t t t y z ; $ $ $ $ $ $ $ $ * ",
"t t t t t t t t t t t t t t t t t y z H $ $ $ $ $ $ $ $ * ",
"t t t t t t t t t t t t t t t t t y z > $ $ $ $ $ $ $ $ * ",
"t t t t t t t t t t t t t t t t t y J > $ $ $ $ $ $ $ $ * ",
"t t t t t t t t t D K L P P P P P I U Y $ $ $ $ $ $ $ $ * ",
"t t t t t t t t 0 T R E W W W W E Q M ! $ $ $ $ $ $ $ $ * ",
"t t t t t t t t 0 ~ ^ $ $ $ $ $ $ $ $ $ $ $ $ $ $ $ $ $ * ",
"t t t t t t t t / ( ) $ $ $ $ $ $ $ $ $ $ $ $ $ $ $ $ $ * ",
"t t t t t t t t / ( ) $ $ $ $ $ $ $ $ $ $ $ $ $ $ $ $ $ * ",
"t t t t t t t t / ( ) $ $ $ $ $ $ $ $ $ $ $ $ $ $ $ $ $ * ",
"t t t t t t t t / _ ) $ $ $ $ $ $ $ $ $ $ $ $ $ $ $ $ $ * ",
"t t t t t t t t / _ ) $ $ $ $ $ $ $ $ $ $ $ $ $ $ $ $ $ * ",
"t t t t t t t t / _ ) $ $ $ $ $ $ $ $ $ $ $ $ $ $ $ $ $ ` ",
"t t t t t t t t / _ ) $ $ $ $ $ $ $ $ v ' ] ] ] ] ] ] [ { ",
"t t t t t t t t / _ ) $ $ $ $ $ $ $ } | 2  ... . . .X.o.O.",
"t t t t t t t t / _ ) $ $ $ $ $ $ $ { +.@.0 0 0 0 0 0 0 @.",
"t t t t t t t t / _ ) $ $ $ $ $ $ $ #.$.%.t t t t t t t t ",
"t t t t t t t t / _ ) $ $ $ $ $ $ $ #.&.%.t t t t t t t t ",
"t t t t t t t t / _ ) $ $ $ $ $ $ $ #.&.%.t t t t t t t t ",
"t t t t t t t t / _ ) $ $ $ $ $ $ $ #.&.%.t t t t t t t t ",
"t t t t t t t t / _ ) $ $ $ $ $ $ $ #.&.%.t t t t t t t t ",
"t t t t t t t t / _ ) $ $ $ $ $ $ $ #.&.%.t t t t t t t t ",
"t t t t t t t t / _ ) $ $ $ $ $ $ $ #.&.%.t t t t t t t t ",
"t t t t t t t t / _ ) $ $ $ $ $ $ $ #.&.%.t t t t t t t t ",
"t t t t t t t t / _ ) $ $ $ $ $ $ $ #.&.%.t t t t t t t t ",
"t t t t t t t t / _ ) $ $ $ $ $ $ $ #.&.%.t t t t t t t t ",
"t t t t t t t t / _ ) $ $ $ $ $ $ $ #.&.%.t t t t t t t t ",
"t t t t t t t t / _ ) $ $ $ $ $ $ $ #.&.%.t t t t t t t t ",
"t t t t t t t t / _ ) $ $ $ $ $ $ $ #.&.%.t t t t t t t t ",
"t t t t t t t t / _ ) $ $ $ $ $ $ $ #.&.%.t t t t t t t t ",
"t t t t t t t t / _ ) $ $ $ $ $ $ $ #.&.%.t t t t t t t t ",
"t t t t t t t t / ( *.$ $ $ $ $ $ $ =.-.%.t t t t t t t t ",
"t t t t t t t t 0 ;.:.>.X X X X X + ,.<.F t t t t t t t t "
};
