/* XPM */
static char *result[] = {
/* columns rows colors chars-per-pixel */
"29 65 107 2 ",
"   c #7B7B7B",
".  c #B1B1B1",
"X  c gray69",
"o  c #ACACAC",
"O  c #5F5A5D",
"+  c gray61",
"@  c white",
"#  c gray95",
"$  c #625D5F",
"%  c #9B9B9B",
"&  c gray94",
"*  c #615C5F",
"=  c #FEFEFE",
"-  c #ECECEC",
";  c #EAEAEA",
":  c #E9EAE9",
">  c gray93",
",  c gray98",
"<  c #747273",
"1  c #3D383B",
"2  c #3F3A3D",
"3  c #3E383B",
"4  c #888788",
"5  c gray96",
"6  c #FBFBFB",
"7  c #6F6B6D",
"8  c #170C12",
"9  c #1A0F15",
"0  c #190E14",
"q  c #8D898B",
"w  c #6F6B6E",
"e  c #1C1117",
"r  c #1B1016",
"t  c #8D8A8C",
"y  c #706C6E",
"u  c #F1F1F1",
"i  c #635E61",
"p  c #908C8E",
"a  c #EEEFEF",
"s  c #645F62",
"d  c #827E80",
"f  c #E1E1E1",
"g  c #F4F4F4",
"h  c #3D3539",
"j  c #919090",
"k  c #9C9A9B",
"l  c #9B9A9B",
"z  c #979696",
"x  c #555053",
"c  c #1D1318",
"v  c #1C1218",
"b  c #1C1318",
"n  c #1D1419",
"m  c #22181D",
"M  c #6F6C6E",
"N  c #FAFBFA",
"B  c #696668",
"V  c #190F14",
"C  c #1B1117",
"Z  c #1B1217",
"A  c #1C1217",
"S  c #22181E",
"D  c #ADACAD",
"F  c #989697",
"G  c #989798",
"H  c #999898",
"J  c #999798",
"K  c #9A9899",
"L  c #9D9C9D",
"P  c #9C9B9C",
"I  c #9B9A9A",
"U  c #9D9C9C",
"Y  c #999899",
"T  c #959494",
"R  c #565053",
"E  c #F3F4F3",
"W  c #605C5E",
"Q  c #605B5E",
"!  c #EDEEED",
"~  c #ECEDED",
"^  c #F9FAFA",
"/  c #787778",
"(  c #443E41",
")  c #474144",
"_  c #464043",
"`  c #4A4447",
"'  c #4A4548",
"]  c #474245",
"[  c #959394",
"{  c #FDFEFE",
"}  c #6D696B",
"|  c #1A0E15",
" . c #180D13",
".. c #9E9A9C",
"X. c #A39FA1",
"o. c #9F9B9D",
"O. c #939092",
"+. c #6E6A6C",
"@. c #5B5458",
"#. c #F9F9F9",
"$. c #757374",
"%. c #403A3D",
"&. c #3D373A",
"*. c #797778",
"=. c #E9EAEA",
"-. c #EEEEEE",
";. c #615D5F",
/* pixels */
"  . X X X X X X X X X X X X X X X X X X X X X X . X . o O ",
"+ @ @ @ @ @ @ @ @ @ @ @ @ @ @ @ @ @ @ @ @ @ @ @ @ @ @ # $ ",
"% @ @ @ @ @ @ @ @ @ @ @ @ @ @ @ @ @ @ @ @ @ @ @ @ @ @ & * ",
"% @ @ @ @ @ @ @ @ @ @ @ @ @ @ @ @ @ @ @ @ @ @ @ @ @ @ & * ",
"% @ @ @ @ @ @ @ @ @ @ @ @ @ @ @ @ @ @ @ @ @ @ @ @ @ @ & * ",
"% @ @ @ @ @ @ @ @ @ @ @ @ @ @ @ @ @ @ @ @ @ @ @ @ @ @ & * ",
"% @ @ @ @ @ @ @ @ @ @ @ @ @ @ @ @ @ @ @ @ @ @ @ @ @ @ & * ",
"% @ @ @ @ @ @ @ @ @ @ @ @ @ @ @ @ @ @ @ @ @ @ @ @ @ @ & * ",
"% @ @ @ @ @ @ @ = - ; ; ; ; ; ; ; : > = @ @ @ @ @ @ @ & * ",
"% @ @ @ @ @ @ @ , < 1 2 2 2 2 2 2 3 4 5 @ @ @ @ @ @ @ & * ",
"% @ @ @ @ @ @ @ 6 7 8 9 9 9 9 9 9 0 q & @ @ @ @ @ @ @ & * ",
"% @ @ @ @ @ @ @ 6 w 0 e e e e e e r t & @ @ @ @ @ @ @ & * ",
"% @ @ @ @ @ @ @ 6 y 0 e e e e e e r t & @ @ @ @ @ @ @ & * ",
"% @ @ @ @ @ @ @ 6 y 0 e e e e e e r t & @ @ @ @ @ @ @ & * ",
"% @ @ @ @ @ @ @ 6 w 0 e e e e e e r t & @ @ @ @ @ @ @ & * ",
"% @ @ @ @ @ @ @ 6 w 0 e e e e e e r t & @ @ @ @ @ @ @ & * ",
"% @ @ @ @ @ @ @ 6 w 0 e e e e e e r t & @ @ @ @ @ @ @ & * ",
"% @ @ @ @ @ @ @ 6 w 0 e e e e e e r t & @ @ @ @ @ @ @ & * ",
"% @ @ @ @ @ @ @ 6 w 0 e e e e e e r t & @ @ @ @ @ @ @ & * ",
"% @ @ @ @ @ @ @ 6 w 0 e e e e e e r t & @ @ @ @ @ @ @ & * ",
"% @ @ @ @ @ @ @ 6 w 0 e e e e e e r t & @ @ @ @ @ @ @ & * ",
"% @ @ @ @ @ @ @ 6 w 0 e e e e e e r t & @ @ @ @ @ @ @ & * ",
"% @ @ @ @ @ @ @ 6 w 0 e e e e e e r t & @ @ @ @ @ @ @ & * ",
"% @ @ @ @ @ @ @ 6 w 0 e e e e e e r t & @ @ @ @ @ @ @ & * ",
"% @ @ @ @ @ @ @ 6 w 0 e e e e e e r t & @ @ @ @ @ @ @ u i ",
"% @ @ @ @ @ @ @ 6 w 0 e e e e e e e p a @ @ @ @ @ @ @ u s ",
"% @ @ @ @ @ @ @ 6 w 0 e e e e e e e d f @ @ @ @ @ @ @ g i ",
"% @ @ @ @ @ @ @ 6 w 0 e e e e e e r h j k k k k k l l z x ",
"% @ @ @ @ @ @ @ 6 w 0 e e e e e e e e c v v v v b v v n m ",
"% @ @ @ @ @ @ @ 6 w 0 e e e e e e e e e e e e e e e e e e ",
"% @ @ @ @ @ @ @ 6 w 0 e e e e e e e e e e e e e e e e e e ",
"% @ @ @ @ @ @ @ 6 w 0 e e e e e e e e e e e e e e e e e e ",
"% @ @ @ @ @ @ @ 6 w 0 e e e e e e e e e e e e e e e e e e ",
"% @ @ @ @ @ @ @ 6 M 0 e e e e e e e e e e e e e e e e e e ",
"% @ @ @ @ @ @ @ 6 M 0 e e e e e e e e e e e e e e e e e e ",
"% @ @ @ @ @ @ @ 6 7 0 e e e e e e e e e e e e e e e e e e ",
"% @ @ @ @ @ @ @ N B V C Z Z Z Z C Z C A c c v c c c Z c S ",
"% @ @ @ @ @ @ @ 6 D F G H H H H J H G K L P I L L U Y T R ",
"% @ @ @ @ @ @ @ @ @ @ @ @ @ @ @ @ @ @ @ @ @ @ @ @ @ @ E * ",
"% @ @ @ @ @ @ @ @ @ @ @ @ @ @ @ @ @ @ @ @ @ @ @ @ @ @ & W ",
"% @ @ @ @ @ @ @ @ @ @ @ @ @ @ @ @ @ @ @ @ @ @ @ @ @ @ & Q ",
"% @ @ @ @ @ @ @ @ @ @ @ @ @ @ @ @ @ @ @ @ @ @ @ @ @ @ & * ",
"% @ @ @ @ @ @ @ @ @ @ @ @ @ @ @ @ @ @ @ @ @ @ @ @ @ @ & * ",
"% @ @ @ @ @ @ @ @ @ @ @ @ @ @ @ @ @ @ @ @ @ @ @ @ @ @ & * ",
"% @ @ @ @ @ @ @ @ @ @ @ @ @ @ @ @ @ @ @ @ @ @ @ @ @ @ & * ",
"% @ @ @ @ @ @ @ = > - - - - > ! ! ~ a = @ @ @ @ @ @ @ & * ",
"% @ @ @ @ @ @ @ ^ / ( ) _ ) ` ' ' ] [ { @ @ @ @ @ @ @ & * ",
"% @ @ @ @ @ @ @ 6 } 8 9 9 9 | | |  ...@ @ @ @ @ @ @ @ & * ",
"% @ @ @ @ @ @ @ 6 7 0 e e e e e e r X.@ @ @ @ @ @ @ @ & * ",
"% @ @ @ @ @ @ @ 6 M 0 e e e e e e r X.@ @ @ @ @ @ @ @ & * ",
"% @ @ @ @ @ @ @ 6 w 0 e e e e e e r o.@ @ @ @ @ @ @ @ & * ",
"% @ @ @ @ @ @ @ 6 w 0 e e e e e e 9 O.@ @ @ @ @ @ @ @ & * ",
"% @ @ @ @ @ @ @ 6 w 0 e e e e e e 9 q @ @ @ @ @ @ @ @ & * ",
"% @ @ @ @ @ @ @ 6 7 0 e e e e e e 9 q @ @ @ @ @ @ @ @ & * ",
"% @ @ @ @ @ @ @ 6 +.8 9 9 9 9 9 9 8 @.#.@ @ @ @ @ @ @ & * ",
"% @ @ @ @ @ @ @ ^ $.1 2 %.%.%.%.%.&.*.6 @ @ @ @ @ @ @ & * ",
"% @ @ @ @ @ @ @ = - ; ; ; ; ; ; ; =.-.= @ @ @ @ @ @ @ & * ",
"% @ @ @ @ @ @ @ @ @ @ @ @ @ @ @ @ @ @ @ @ @ @ @ @ @ @ & * ",
"% @ @ @ @ @ @ @ @ @ @ @ @ @ @ @ @ @ @ @ @ @ @ @ @ @ @ & * ",
"% @ @ @ @ @ @ @ @ @ @ @ @ @ @ @ @ @ @ @ @ @ @ @ @ @ @ & * ",
"% @ @ @ @ @ @ @ @ @ @ @ @ @ @ @ @ @ @ @ @ @ @ @ @ @ @ & * ",
"% @ @ @ @ @ @ @ @ @ @ @ @ @ @ @ @ @ @ @ @ @ @ @ @ @ @ & * ",
"% @ @ @ @ @ @ @ @ @ @ @ @ @ @ @ @ @ @ @ @ @ @ @ @ @ @ & * ",
"+ @ @ @ @ @ @ @ @ @ @ @ @ @ @ @ @ @ @ @ @ @ @ @ @ @ @ # ;.",
"  . X X X X X X X X X X X X X X X X X X X X X X X X . o O "
};
