/* XPM */
static char *result[] = {
/* columns rows colors chars-per-pixel */
"29 65 121 2 ",
"   c gray61",
".  c gray70",
"X  c gray66",
"o  c gray62",
"O  c #AFAFAF",
"+  c gray69",
"@  c #B1B1B1",
"#  c #A2A2A2",
"$  c #3B3639",
"%  c #C5C5C5",
"&  c white",
"*  c #E2E2E2",
"=  c gray82",
"-  c gray97",
";  c gray90",
":  c #373235",
">  c gray77",
",  c #FBFBFB",
"<  c gray92",
"1  c #FDFDFD",
"2  c gray89",
"3  c #BBBBBB",
"4  c gray85",
"5  c #F6F6F6",
"6  c gray99",
"7  c #B2B2B2",
"8  c gray73",
"9  c #C3C3C3",
"0  c #F8F8F8",
"q  c #E9E9E9",
"w  c #EAEAEA",
"e  c #E8E9E8",
"r  c #FEFEFE",
"t  c #B7B6B6",
"y  c #4D494B",
"u  c #3E393C",
"i  c #3F3A3D",
"p  c #3F393C",
"a  c #444042",
"s  c gray98",
"d  c #A5A4A5",
"f  c #382F34",
"g  c #180C13",
"h  c #1A0F15",
"j  c #190D14",
"k  c #2B2227",
"l  c #C9C8C9",
"z  c #A6A5A5",
"x  c #3A3136",
"c  c #1C1117",
"v  c #1B1016",
"b  c #2C2429",
"n  c gray79",
"m  c #A6A5A6",
"M  c #9F9F9F",
"N  c #352C31",
"B  c #FAFBFB",
"V  c #999898",
"C  c #31282C",
"Z  c #FAFBFA",
"A  c #31282D",
"S  c #C6C6C6",
"D  c #9B9A9A",
"F  c #32292E",
"G  c #C8C8C8",
"H  c #9A999A",
"J  c #8D8B8C",
"K  c #9B9A9B",
"L  c #9C9A9B",
"P  c #676365",
"I  c #20151B",
"U  c #22181D",
"Y  c #1C1217",
"T  c #1C1218",
"R  c #1C1318",
"E  c #1D1319",
"W  c #2D2429",
"Q  c #2C2428",
"!  c #1C1016",
"~  c #1B0F15",
"^  c #21171D",
"/  c #1B1116",
"(  c #1B1217",
")  c #1A1016",
"_  c #292125",
"`  c #8A898A",
"'  c #989798",
"]  c #999899",
"[  c #999798",
"{  c #989797",
"}  c #DADADA",
"|  c #BDBEBE",
" . c gray93",
".. c #ECECEC",
"X. c #4D474A",
"o. c #454043",
"O. c #464043",
"+. c #464144",
"@. c #4C484A",
"#. c gray78",
"$. c #190D13",
"%. c #E4E4E4",
"&. c #3A3638",
"*. c #3D383B",
"=. c #3D383A",
"-. c #484245",
";. c #403A3D",
":. c #454143",
">. c #3B3638",
",. c #BBBCBC",
"<. c #E3E4E4",
"1. c #383336",
"2. c #E4E5E5",
"3. c #E3E4E3",
"4. c #383335",
"5. c #393437",
"6. c #E7E7E7",
"7. c #3C373A",
"8. c #A0A0A0",
"9. c #B4B4B4",
"0. c gray71",
/* pixels */
"  . X o O + + + + + + + + + + + + + + + + + + + + + @ # $ ",
"% & * = - & & & & & & & & & & & & & & & & & & & & & & ; : ",
"> & , < 1 & & & & & & & & & & & & & & & & & & & & & & 2 : ",
"3 4 5 6 & & & & & & & & & & & & & & & & & & & & & & & 2 : ",
"7 8 , & & & & & & & & & & & & & & & & & & & & & & & & 2 : ",
"9 0 & & & & & & & & & & & & & & & & & & & & & & & & & 2 : ",
"% & & & & & & & & & & & & & & & & & & & & & & & & & & 2 : ",
"% & & & & & & & & & & & & & & & & & & & & & & & & & & 2 : ",
"> & & & & & & & & 0 q w w w w w w w e 5 & & & & & & & 2 : ",
"% & & & & & & & r t y u i i i i i p a % & & & & & & & 2 : ",
"% & & & & & & & s d f g h h h h h j k l & & & & & & & 2 : ",
"% & & & & & & & s z x h c c c c c v b n & & & & & & & 2 : ",
"% & & & & & & & s m x h c c c c c v b n & & & & & & & 2 : ",
"% & & & & & & & s M N h c c c c c v b n & & & & & & & 2 : ",
"% & & & & & & & B V C h c c c c c v b n & & & & & & & 2 : ",
"% & & & & & & & Z V A h c c c c c v b n & & & & & & & 2 : ",
"% & & & & & & & Z V A h c c c c c v b n & & & & & & & 2 : ",
"% & & & & & & & Z V A h c c c c c v b n & & & & & & & 2 : ",
"% & & & & & & & Z V A h c c c c c v b n & & & & & & & 2 : ",
"% & & & & & & & Z V A h c c c c c v b n & & & & & & & 2 : ",
"% & & & & & & & Z V A h c c c c c v b n & & & & & & & 2 : ",
"% & & & & & & & Z V A h c c c c c v b n & & & & & & & 2 : ",
"% & & & & & & & Z V A h c c c c c v b n & & & & & & & 2 : ",
"% & & & & & & & Z V A h c c c c c v b n & & & & & & & 2 : ",
"% & & & & & & & B V A h c c c c c v b n & & & & & & & 2 : ",
"S & & & & & & & s D F h c c c c c v b n & & & & & & & 2 : ",
"G & & & & & & & 6 H x h c c c c c v b n & & & & & & & 2 : ",
"J K D L L L L K K P I c c c c c c v b n & & & & & & & 2 : ",
"U Y T T T T T T R E c c c c c c c v b n & & & & & & & 2 : ",
"v c c c c c c c c c c c c c c c c v b n & & & & & & & 2 : ",
"c c c c c c c c c c c c c c c c c v b n & & & & & & & 2 : ",
"c c c c c c c c c c c c c c c c c v b n & & & & & & & 2 : ",
"c c c c c c c c c c c c c c c c c v b n & & & & & & & 2 : ",
"c c c c c c c c c c c c c c c c c v W n & & & & & & & 2 : ",
"c c c c c c c c c c c c c c c c c v Q l & & & & & & & 2 : ",
"! c c c c c c c c c c c c c c c c ~ W n & & & & & & & 2 : ",
"^ / ( ( ( ( ( ( ( ( ( ( ( ( ( ( ( ) _ > & & & & & & & 2 : ",
"` ' ] V V V V V V V V V V V V V V [ { } & & & & & & & 2 : ",
"G & & & & & & & & & & & & & & & & & & & & & & & & & & 2 : ",
"% & & & & & & & & & & & & & & & & & & & & & & & & & & 2 : ",
"% & & & & & & & & & & & & & & & & & & & & & & & & & & 2 : ",
"% & & & & & & & & & & & & & & & & & & & & & & & & & & 2 : ",
"% & & & & & & & & & & & & & & & & & & & & & & & & & & 2 : ",
"% & & & & & & & & & & & & & & & & & & & & & & & & & & 2 : ",
"S & & & & & & & & & & & & & & & & & & & & & & & & & & 2 : ",
"|  .................................< 5 & & & & & & & 2 : ",
"X.o.O.+.+.+.+.+.+.+.+.+.+.+.+.+.+.O.@.#.& & & & & & & 2 : ",
"h h h h h h h h h h h h h h h h h $.k n & & & & & & & 2 : ",
"c c c c c c c c c c c c c c c c c v W n & & & & & & & 2 : ",
"c c c c c c c c c c c c c c c c c v b n & & & & & & & 2 : ",
"c c c c c c c c c c c c c c c c c v Q n & & & & & & & 2 : ",
"c c c c c c c c c c c c c c c c c v b n & & & & & & & 2 : ",
"c c c c c c c c c c c c c c c c c v b n & & & & & & & %.&.",
"c c c c c c c c c c c c c c c c c v Q n & & & & & & & ; *.",
"h h h h h h h h h h h h h h h h h j k n & & & & & & & ; =.",
"-.p i p ;.;.;.;.;.;.;.;.;.;.;.;.i p :.% & & & & & & & %.>.",
",.< w w w w w w w w w w w w w w w w q 5 & & & & & & & <.1.",
"S & & & & & & & & & & & & & & & & & & & & & & & & & & 2.$ ",
"% & & & & & & & & & & & & & & & & & & & & & & & & & & 3.4.",
"% & & & & & & & & & & & & & & & & & & & & & & & & & & 2 : ",
"% & & & & & & & & & & & & & & & & & & & & & & & & & & 2 : ",
"S & & & & & & & & & & & & & & & & & & & & & & & & & & %.5.",
"% & & & & & & & & & & & & & & & & & & & & & & & & & & ; *.",
"#.& & & & & & & & & & & & & & & & & & & & & & & & & & 6.7.",
"8.@ @ + + + + + + + + + + + + + + + + 9.0.+ O + 9.0.9.# $ "
};
