/* XPM */
static char *result[] = {
/* columns rows colors chars-per-pixel */
"29 65 114 2 ",
"   c #AEAEAE",
".  c #AFAFAF",
"X  c gray69",
"o  c #B1B1B1",
"O  c #C8C8C8",
"+  c #D7D7D7",
"@  c white",
"#  c gray95",
"$  c gray84",
"%  c #F1F1F1",
"&  c gray94",
"*  c #EFEFEF",
"=  c #EEEEEE",
"-  c #F6F6F6",
";  c #E9E9E9",
":  c #EAEAEA",
">  c #D8D8D8",
",  c #524E50",
"<  c #3E383B",
"1  c #3F3A3D",
"2  c #3F393C",
"3  c #4A4648",
"4  c gray80",
"5  c gray92",
"6  c #433A3F",
"7  c #170C12",
"8  c #1A0F15",
"9  c #180D13",
"0  c #342B30",
"q  c #D5D5D5",
"w  c #443C40",
"e  c #190E14",
"r  c #1C1117",
"t  c #352C31",
"y  c #D5D4D5",
"u  c #443C41",
"i  c #362D32",
"p  c #372E33",
"a  c #D8D7D7",
"s  c #EAE9EA",
"d  c #443B40",
"f  c #372F33",
"g  c #EBEAEB",
"h  c #453C41",
"j  c #362E32",
"k  c #ECEBEB",
"l  c #453D41",
"z  c #D6D5D6",
"x  c #D7D6D7",
"c  c #E9E8E9",
"v  c #433B3F",
"b  c #E9E8E8",
"n  c #EAE9E9",
"m  c #D8D7D8",
"M  c #D8D9D9",
"N  c #EEEDED",
"B  c #352D31",
"V  c #9B9A9B",
"C  c #9E9D9D",
"Z  c #9E9D9E",
"A  c #9C9B9C",
"S  c #9D9C9D",
"D  c #9F9E9F",
"F  c #9D9C9C",
"G  c #A2A0A1",
"H  c #40373C",
"J  c #1A0E14",
"K  c #241A1F",
"L  c #1D1318",
"P  c #1D1319",
"I  c #1C1318",
"U  c #1C1218",
"Y  c #1E1419",
"T  c #22191E",
"R  c #21161C",
"E  c #352D32",
"W  c #1B1016",
"Q  c #D6D5D5",
"!  c #23191E",
"~  c #1B1116",
"^  c #1C1217",
"/  c #1B1117",
"(  c #1B1217",
")  c #1A1015",
"_  c #31292D",
"`  c gray81",
"'  c #9A9899",
"]  c #989697",
"[  c #9B9A9A",
"{  c #979696",
"}  c #9C9B9B",
"|  c #9A9999",
" . c #989798",
".. c #999898",
"X. c #989797",
"o. c #DDDDDD",
"O. c #DADADA",
"+. c gray83",
"@. c #F3F3F3",
"#. c gray97",
"$. c #ECECEC",
"%. c #595457",
"&. c #453F42",
"*. c #464144",
"=. c #464043",
"-. c #454043",
";. c #625C5F",
":. c #D9D8D9",
">. c #534F51",
",. c #403A3D",
"<. c #3E393C",
"1. c #5E585B",
"2. c #E9EAE9",
"3. c gray79",
/* pixels */
"  . X X o X X X X X X X X X X X X X X X X X X X X . X . O ",
"+ @ @ @ @ @ @ @ @ @ @ @ @ @ @ @ @ @ @ @ @ @ @ @ @ @ @ @ # ",
"$ @ @ @ @ @ @ @ @ @ @ @ @ @ @ @ @ @ @ @ @ @ @ @ @ @ @ @ % ",
"$ @ @ @ @ @ @ @ @ @ @ @ @ @ @ @ @ @ @ @ @ @ @ @ @ @ @ @ & ",
"$ @ @ @ @ @ @ @ @ @ @ @ @ @ @ @ @ @ @ @ @ @ @ @ @ @ @ @ * ",
"$ @ @ @ @ @ @ @ @ @ @ @ @ @ @ @ @ @ @ @ @ @ @ @ @ @ @ @ * ",
"$ @ @ @ @ @ @ @ @ @ @ @ @ @ @ @ @ @ @ @ @ @ @ @ @ @ @ @ = ",
"$ @ @ @ @ @ @ @ @ @ @ @ @ @ @ @ @ @ @ @ @ @ @ @ @ @ @ @ & ",
"$ @ @ @ @ @ @ @ @ - ; : : : : : : : ; - @ @ @ @ @ @ @ @ # ",
"$ @ @ @ @ @ @ @ @ > , < 1 1 1 1 1 2 3 4 @ @ @ @ @ @ @ @ # ",
"$ @ @ @ @ @ @ @ @ 5 6 7 8 8 8 8 8 9 0 q @ @ @ @ @ @ @ @ & ",
"$ @ @ @ @ @ @ @ @ : w e r r r r r 8 t q @ @ @ @ @ @ @ @ & ",
"$ @ @ @ @ @ @ @ @ : w e r r r r r 8 t q @ @ @ @ @ @ @ @ % ",
"$ @ @ @ @ @ @ @ @ : w e r r r r r 8 t y @ @ @ @ @ @ @ @ # ",
"$ @ @ @ @ @ @ @ @ : u e r r r r r 8 i $ @ @ @ @ @ @ @ @ % ",
"$ @ @ @ @ @ @ @ @ : w e r r r r r 8 p a @ @ @ @ @ @ @ @ % ",
"$ @ @ @ @ @ @ @ @ : w e r r r r r 8 p a @ @ @ @ @ @ @ @ % ",
"$ @ @ @ @ @ @ @ @ : w e r r r r r 8 p + @ @ @ @ @ @ @ @ % ",
"$ @ @ @ @ @ @ @ @ s d e r r r r r 8 f + @ @ @ @ @ @ @ @ % ",
"$ @ @ @ @ @ @ @ @ g h e r r r r r 8 j $ @ @ @ @ @ @ @ @ # ",
"$ @ @ @ @ @ @ @ @ k l e r r r r r 8 i z @ @ @ @ @ @ @ @ # ",
"$ @ @ @ @ @ @ @ @ s d e r r r r r 8 j x @ @ @ @ @ @ @ @ # ",
"$ @ @ @ @ @ @ @ @ c v e r r r r r 8 p a @ @ @ @ @ @ @ @ # ",
"$ @ @ @ @ @ @ @ @ b 6 e r r r r r 8 p a @ @ @ @ @ @ @ @ # ",
"$ @ @ @ @ @ @ @ @ n d e r r r r r 8 f m @ @ @ @ @ @ @ @ # ",
"$ @ @ @ @ @ @ @ @ k l e r r r r r 8 i $ @ @ @ @ @ @ @ @ # ",
"M @ @ @ @ @ @ @ @ N h e r r r r r 8 B q @ @ @ @ @ @ @ @ # ",
"V C Z A V V S D F G H J r r r r r 8 B q @ @ @ @ @ @ @ @ # ",
"K L P I U U L Y L T R r r r r r r 8 E q @ @ @ @ @ @ @ @ # ",
"W r r r r r r r r W r r r r r r r 8 B q @ @ @ @ @ @ @ @ # ",
"r r r r r r r r r r r r r r r r r 8 B q @ @ @ @ @ @ @ @ # ",
"r r r r r r r r r r r r r r r r r 8 E Q @ @ @ @ @ @ @ @ # ",
"r r r r r r r r r r r r r r r r r 8 E Q @ @ @ @ @ @ @ @ # ",
"r r r r r r r r r r r r r r r r r 8 B q @ @ @ @ @ @ @ @ # ",
"r r r r r r r r r r r r r r r r r 8 B q @ @ @ @ @ @ @ @ # ",
"W r r r r r r r r r r r r r r r r 8 t q @ @ @ @ @ @ @ @ # ",
"! ~ U P P P L ^ / ( ( ( ( ( ( ( ( ) _ ` @ @ @ @ @ @ @ @ # ",
"' ] [ S { } S |  .................X.| o.@ @ @ @ @ @ @ @ # ",
"O.@ @ @ @ @ @ @ @ @ @ @ @ @ @ @ @ @ @ @ @ @ @ @ @ @ @ @ # ",
"> @ @ @ @ @ @ @ @ @ @ @ @ @ @ @ @ @ @ @ @ @ @ @ @ @ @ @ # ",
"+ @ @ @ @ @ @ @ @ @ @ @ @ @ @ @ @ @ @ @ @ @ @ @ @ @ @ @ # ",
"q @ @ @ @ @ @ @ @ @ @ @ @ @ @ @ @ @ @ @ @ @ @ @ @ @ @ @ # ",
"+.@ @ @ @ @ @ @ @ @ @ @ @ @ @ @ @ @ @ @ @ @ @ @ @ @ @ @ # ",
"q @ @ @ @ @ @ @ @ @ @ @ @ @ @ @ @ @ @ @ @ @ @ @ @ @ @ @ # ",
"q @ @ @ @ @ @ @ @ @ @ @ @ @ @ @ @ @ @ @ @ @ @ @ @ @ @ @ @.",
"q @ @ @ @ @ @ @ @ #.5 $.$.$.$.$.$.$.$.$.$.$.$.$.$.$.$.$.: ",
"$ @ @ @ @ @ @ @ @ O.%.&.*.*.*.*.*.*.*.*.*.*.*.*.*.=.*.-.;.",
"$ @ @ @ @ @ @ @ @ 5 6 7 8 8 8 8 8 8 8 8 8 8 8 8 8 8 8 8 e ",
"$ @ @ @ @ @ @ @ @ 5 h e r r r r r r r r r r r r r r r r r ",
"$ @ @ @ @ @ @ @ @ g h e r r r r r r r r r r r r r r r r r ",
"$ @ @ @ @ @ @ @ @ : w e r r r r r r r r r r r r r r r r r ",
"$ @ @ @ @ @ @ @ @ : w e r r r r r r r r r r r r r r r r r ",
"$ @ @ @ @ @ @ @ @ : w e r r r r r r r r r r r r r r r r r ",
"$ @ @ @ @ @ @ @ @ : u e r r r r r r r r r r r r r r r r r ",
"$ @ @ @ @ @ @ @ @ 5 v 7 8 8 8 8 8 8 8 8 8 8 8 8 8 8 8 8 e ",
"$ @ @ @ @ @ @ @ @ :.>.< 1 ,.,.,.,.,.,.,.,.,.,.,.,.1 <.2 1.",
"$ @ @ @ @ @ @ @ @ - ; : : : : : : : : : : : : : : : 2.: ; ",
"$ @ @ @ @ @ @ @ @ @ @ @ @ @ @ @ @ @ @ @ @ @ @ @ @ @ @ @ @.",
"$ @ @ @ @ @ @ @ @ @ @ @ @ @ @ @ @ @ @ @ @ @ @ @ @ @ @ @ # ",
"$ @ @ @ @ @ @ @ @ @ @ @ @ @ @ @ @ @ @ @ @ @ @ @ @ @ @ @ # ",
"$ @ @ @ @ @ @ @ @ @ @ @ @ @ @ @ @ @ @ @ @ @ @ @ @ @ @ @ # ",
"$ @ @ @ @ @ @ @ @ @ @ @ @ @ @ @ @ @ @ @ @ @ @ @ @ @ @ @ # ",
"$ @ @ @ @ @ @ @ @ @ @ @ @ @ @ @ @ @ @ @ @ @ @ @ @ @ @ @ # ",
"> @ @ @ @ @ @ @ @ @ @ @ @ @ @ @ @ @ @ @ @ @ @ @ @ @ @ @ @.",
". . X o o X X X X X X X X X X X X X X X X X X X X X X . 3."
};
