/* XPM */
static char *result[] = {
/* columns rows colors chars-per-pixel */
"29 65 59 1 ",
"  c gray61",
". c #AFAFAF",
"X c gray69",
"o c gray70",
"O c gray71",
"+ c #B4B4B4",
"@ c #B1B1B1",
"# c #A2A2A2",
"$ c #3C373A",
"% c gray77",
"& c white",
"* c #E6E6E6",
"= c #393437",
"- c gray76",
"; c #E4E4E4",
": c #F9F9F9",
"> c #E9EAEA",
", c #EAEAEA",
"< c #E8E9E9",
"1 c #F6F6F6",
"2 c gray99",
"3 c #888687",
"4 c #3D373A",
"5 c #3F3A3D",
"6 c #3F393C",
"7 c #443F42",
"8 c #C3C3C3",
"9 c #464345",
"0 c #170B11",
"q c #1A0F15",
"w c #190E14",
"e c #292125",
"r c gray78",
"t c #F6F7F6",
"y c #494547",
"u c #1C1117",
"i c #1B1016",
"p c #2B2227",
"a c #2B2327",
"s c #2C2328",
"d c #C8C7C7",
"f c #2B2328",
"g c gray97",
"h c #4B4749",
"j c #190D13",
"k c #F8F8F8",
"l c #585456",
"z c #190D14",
"x c #2A2126",
"c c #979697",
"v c #464244",
"b c #3E393C",
"n c #403A3D",
"m c #3F393D",
"M c #444042",
"N c #E9EAE9",
"B c #E9E9E9",
"V c #C5C5C5",
"C c gray62",
/* pixels */
" .XoO+XXXXXXXXXXXXXXXXXXXX@#$",
"%&&&&&&&&&&&&&&&&&&&&&&&&&&*=",
"-&&&&&&&&&&&&&&&&&&&&&&&&&&;=",
"-&&&&&&&&&&&&&&&&&&&&&&&&&&;=",
"-&&&&&&&&&&&&&&&&&&&&&&&&&&;=",
"-&&&&&&&&&&&&&&&&&&&&&&&&&&;=",
"-&&&&&&&&&&&&&&&&&&&&&&&&&&;=",
"-&&&&&&&&&&&&&&&&&&&&&&&&&&;=",
"-&&&&&&&&:>,,,,,,,<1&&&&&&&;=",
"-&&&&&&&23455555567%&&&&&&&;=",
"8&&&&&&&190qqqqqqwer&&&&&&&;=",
"8&&&&&&&tywuuuuuuipr&&&&&&&;=",
"8&&&&&&&tywuuuuuuipr&&&&&&&;=",
"8&&&&&&&tywuuuuuuiar&&&&&&&;=",
"8&&&&&&&tywuuuuuuisd&&&&&&&;=",
"8&&&&&&&tywuuuuuuifd&&&&&&&;=",
"8&&&&&&&tywuuuuuuifd&&&&&&&;=",
"8&&&&&&&tywuuuuuuifd&&&&&&&;=",
"8&&&&&&&tywuuuuuuifd&&&&&&&;=",
"8&&&&&&&tywuuuuuuifd&&&&&&&;=",
"8&&&&&&&tywuuuuuuifd&&&&&&&;=",
"8&&&&&&&tywuuuuuuifd&&&&&&&;=",
"8&&&&&&&tywuuuuuuifd&&&&&&&;=",
"8&&&&&&&tywuuuuuuifd&&&&&&&;=",
"8&&&&&&&tywuuuuuuifd&&&&&&&;=",
"8&&&&&&&tywuuuuuuifd&&&&&&&;=",
"8&&&&&&&tywuuuuuuifd&&&&&&&;=",
"8&&&&&&&tywuuuuuuifd&&&&&&&;=",
"8&&&&&&&tywuuuuuuifd&&&&&&&;=",
"8&&&&&&&tywuuuuuuifd&&&&&&&;=",
"8&&&&&&&tywuuuuuuifd&&&&&&&;=",
"8&&&&&&&tywuuuuuuifd&&&&&&&;=",
"8&&&&&&&tywuuuuuuifd&&&&&&&;=",
"8&&&&&&&tywuuuuuuifd&&&&&&&;=",
"8&&&&&&&tywuuuuuuifd&&&&&&&;=",
"8&&&&&&&tywuuuuuuifd&&&&&&&;=",
"8&&&&&&&tywuuuuuuifd&&&&&&&;=",
"8&&&&&&&tywuuuuuuifd&&&&&&&;=",
"8&&&&&&&tywuuuuuuifd&&&&&&&;=",
"8&&&&&&&tywuuuuuuifd&&&&&&&;=",
"8&&&&&&&tywuuuuuuifd&&&&&&&;=",
"8&&&&&&&tywuuuuuuifd&&&&&&&;=",
"8&&&&&&&tywuuuuuuifd&&&&&&&;=",
"8&&&&&&&tywuuuuuuifd&&&&&&&;=",
"8&&&&&&&tywuuuuuuifd&&&&&&&;=",
"8&&&&&&&tywuuuuuuifd&&&&&&&;=",
"8&&&&&&&tywuuuuuuifd&&&&&&&;=",
"8&&&&&&&tywuuuuuuifd&&&&&&&;=",
"8&&&&&&&tywuuuuuuifd&&&&&&&;=",
"8&&&&&&&tywuuuuuuifd&&&&&&&;=",
"8&&&&&&&tywuuuuuuifd&&&&&&&;=",
"8&&&&&&&tywuuuuuuifd&&&&&&&;=",
"8&&&&&&&tywuuuuuuifd&&&&&&&;=",
"8&&&&&&&ghjuuuuuuiar&&&&&&&;=",
"8&&&&&&&klqqqqqqqzxr&&&&&&&;=",
"8&&&&&&&2cvbnnnnnmM%&&&&&&&;=",
"8&&&&&&&&:N,,,,,,,B1&&&&&&&;=",
"8&&&&&&&&&&&&&&&&&&&&&&&&&&;=",
"8&&&&&&&&&&&&&&&&&&&&&&&&&&;=",
"8&&&&&&&&&&&&&&&&&&&&&&&&&&;=",
"8&&&&&&&&&&&&&&&&&&&&&&&&&&;=",
"-&&&&&&&&&&&&&&&&&&&&&&&&&&;=",
"-&&&&&&&&&&&&&&&&&&&&&&&&&&;=",
"V&&&&&&&&&&&&&&&&&&&&&&&&&&*=",
"CXXXXXXXXXXXXXXXXXXXXXXXXX@#$"
};
