/* XPM */
static char *result[] = {
/* columns rows colors chars-per-pixel */
"32 32 212 2 ",
"   c #222222",
".  c #212222",
"X  c #262524",
"o  c #443838",
"O  c #443837",
"+  c #483B3A",
"@  c #262424",
"#  c #262525",
"$  c #2A2727",
"%  c #453938",
"&  c #443938",
"*  c #272525",
"=  c #2B2827",
"-  c #2B2828",
";  c #252424",
":  c #403635",
">  c #69534D",
",  c #6E5650",
"<  c #473B3A",
"1  c #4D3F3D",
"2  c #735952",
"3  c #785D56",
"4  c #282627",
"5  c #242324",
"6  c #292727",
"7  c #493B3A",
"8  c #4E3F3D",
"9  c #433835",
"0  c #3B3527",
"q  c #373225",
"w  c #2A2423",
"e  c #2C2425",
"r  c #413635",
"t  c #423835",
"y  c #493C3A",
"u  c #232324",
"i  c #393427",
"p  c #CFAA39",
"a  c #D5AA3A",
"s  c #6A332F",
"d  c #54222D",
"f  c #2B2426",
"g  c gray14",
"h  c #252425",
"j  c #242325",
"k  c #242322",
"l  c #342B23",
"z  c #4D3E26",
"x  c #E6B63A",
"c  c #ECB53B",
"v  c #783730",
"b  c #61262D",
"n  c #3D2D24",
"m  c #382E23",
"M  c #212122",
"N  c #202122",
"B  c #362C23",
"V  c #C4782C",
"C  c #DC852D",
"Z  c #ED932F",
"A  c #E48B2F",
"S  c #95462A",
"D  c #92442A",
"F  c #D07B2C",
"G  c #D9832D",
"H  c #D8832D",
"J  c #382D23",
"K  c #D57E2C",
"L  c #ED8C2D",
"P  c #F0942F",
"I  c #94452A",
"U  c #E1812D",
"Y  c #EC8A2D",
"T  c #EB8A2D",
"R  c #342922",
"E  c #B75D25",
"W  c #D07028",
"Q  c #F5BC3A",
"!  c #E9B43B",
"~  c #763730",
"^  c #702C2D",
"/  c #BF5E27",
"(  c #CA6526",
")  c #C96526",
"_  c #B35824",
"`  c #CC6B28",
"'  c #F4BB3A",
"]  c #702B2D",
"[  c #BA5926",
"{  c #C56025",
"}  c #B35925",
"|  c #CB6626",
" . c #EB8F2F",
".. c #E58B2F",
"X. c #904029",
"o. c #BF5C26",
"O. c #BB5A26",
"+. c #C66025",
"@. c #C46025",
"#. c #C05D25",
"$. c #EB8F2E",
"%. c #BE5B25",
"&. c #C55F25",
"*. c #BF5C25",
"=. c #9B4728",
"-. c #904129",
";. c #6B282E",
":. c #342A23",
">. c #B86327",
",. c #D07129",
"<. c #EC902F",
"1. c #914129",
"2. c #C46728",
"3. c #CB6C28",
"4. c #914229",
"5. c #873B2A",
"6. c #743630",
"7. c #723531",
"8. c #393325",
"9. c #DFAF39",
"0. c #F8C23C",
"q. c #FAC63C",
"w. c #753630",
"e. c #E6B03A",
"r. c #F7C23C",
"t. c #763630",
"y. c #743530",
"u. c #DBA93B",
"i. c #EABA3D",
"p. c #EABA3C",
"a. c #CEA938",
"s. c #E7BC3B",
"d. c #F7C53C",
"f. c #733530",
"g. c #D5A93A",
"h. c #E4BA3B",
"j. c #6F3230",
"k. c #713330",
"l. c #FBC83D",
"z. c #FCCD3E",
"x. c #713431",
"c. c #242422",
"v. c #353225",
"b. c #4D3F26",
"n. c #DE8C2F",
"m. c #E78D2F",
"M. c #97472A",
"N. c #813B29",
"B. c #423525",
"V. c #383425",
"C. c #393525",
"Z. c #3E3326",
"A. c #5D242E",
"S. c #722F2F",
"D. c #E18930",
"F. c #F39C31",
"G. c #FCC83D",
"H. c #EBBA3D",
"J. c #733531",
"K. c #232222",
"L. c #252023",
"P. c #3B2B24",
"I. c #C5782C",
"U. c #8D4529",
"Y. c #793928",
"T. c #312424",
"R. c #272123",
"E. c #2D2124",
"W. c #54222C",
"Q. c #692D2E",
"!. c #CA772D",
"~. c #DA882E",
"^. c #E2B439",
"/. c #D4A93A",
"(. c #282223",
"). c #55232C",
"_. c #57242D",
"`. c #3C2D24",
"'. c #362D23",
"]. c #2E2623",
"[. c #322524",
"{. c #56232C",
"}. c #5B232E",
"|. c #55232D",
" X c #2E2224",
".X c #2A2323",
"XX c #382F23",
"oX c #393425",
"OX c #2A2223",
"+X c #60262D",
"@X c #2E2225",
"#X c #2F2225",
"$X c #68262F",
"%X c #2F2325",
"&X c #282123",
"*X c #2D2523",
"=X c #7F3A29",
"-X c #863A2A",
";X c #5A222E",
":X c #853A2A",
">X c #8A3D2A",
",X c #6B292E",
"<X c #67262E",
"1X c #6C292E",
"2X c #8B3D2A",
"3X c #292223",
"4X c #5F262D",
"5X c #8F4029",
"6X c #5A232E",
"7X c #67262F",
"8X c #63232F",
"9X c white",
/* pixels */
"        . X o o X .         . X O + + + + O @ @ o o X .     . . ",
"    @ # X $ % % $ X # # # # X $ & + + + + & $ $ % % $ X # * = - ",
". ; : o o % + + & O O O O O O & + + + + + + & & + + % o O + > , ",
"X $ % + % o O & + + + + + + + + + + + + + + + + & O o % < 1 2 3 ",
"o % + & 4 5 ; 6 % 7 + + + + + + + + + + + + 7 % 6 ; 5 4 o 8 2 3 ",
"o o o 9 0 q w e r o O O O O O O O O O O O O o r e w q 0 t y > , ",
"# # u i p a s d f g h h h h h h h h h h h h g f d s a p i j = - ",
"  k l z x c v b n m m m m m m m m m m m m m m n b v c x z l k M ",
"N B V C Z A S D F G H H H H H H H H H H H H G F D S A Z C V B N ",
"N J K L P A S I U Y T T T T T T T T T T T T Y U I S A P L K J N ",
"M R E W Q ! ~ ^ / ( ) ) ) ) ) ) ) ) ) ) ) ) ( / ^ ~ ! Q W E R M ",
"M R _ ` ' ! ~ ] [ { { { { { { { { { { { { { { [ ] ~ ! ' ` _ R M ",
"M R } |  ...S X.o.{ { { { { { { { { { { { { { o.X.S .. .| } R M ",
"M R } |  ...S X.o.{ { { { { { { { { { { { { { o.X.S .. .| } R M ",
"M R } ` ' ! ~ ] O.+.{ { { { +.+.+.+.{ { { { +.O.] ~ ! ' ` } R M ",
"M R } ` ' ! ~ ] O.+.{ @.#.o.O.[ [ O.o.#.@.{ +.O.] ~ ! ' ` } R M ",
"M R _ ( $...S X.%.&.&.*.=.-.] ;.;.] -.=.*.&.&.%.X.S ..$.( _ R M ",
"M :.>.,.<...S 1.2.3.3.2.4.5.6.7.7.6.5.4.2.3.3.2.1.S ..<.,.>.:.M ",
"N 8.9.0.q.! w.w.e.r.r.e.t.y.u.i.p.u.y.t.e.r.r.e.w.w.! q.0.9.8.N ",
"N q a.s.d.! t.f.g.h.h.g.j.k.! l.z.p.x.j.g.h.h.g.f.t.! d.s.a.q N ",
"  c.v.b.n.m.M.N.B.V.C.Z.A.S.D.F.G.H.J.A.Z.C.V.B.N.M.m.n.b.v.c.  ",
"  K.L.P.I.F U.Y.T.R.R.E.W.Q.!.~.^./.s W.E.R.R.T.Y.U.F I.P.L.K.  ",
"  (.)._.`.'.].[.{.}.}.|. X.XB XXoXq w  X|.}.}.{.[.].'.`._.).(.  ",
". OX+Xb @XR.(.#X+X$X$Xb %X(.&XR.R.&X(.%Xb $X$X+X#X(.R.@Xb +XOX. ",
". *X=X-X+X;X;X+X:X>X>X:X+X;X}.}.}.}.;X+X:X>X>X:X+X;X;X+X-X=X*X. ",
". *X=X5.,X<X<X1X2XX.X.2X1X<X<X<X<X<X<X1X2XX.X.2X1X<X<X,X5.=X*X. ",
". 3X4X,X5.2X>X2X5X5X5X5X2X>X>X>X>X>X>X2X5X5X5X5X2X>X2X5.,X4X3X. ",
". 3X6X7X-X2X>X>X>X>X>X>X>X>X>X>X>X>X>X>X>X>X>X>X>X>X2X-X7X6X3X. ",
". 3X}.8X7X<X<X<X<X<X<X<X<X<X<X<X<X<X<X<X<X<X<X<X<X<X<X7X8X}.3X. ",
"  (.).}.}.}.}.}.}.}.}.}.}.}.}.}.}.}.}.}.}.}.}.}.}.}.}.}.}.).(.  ",
"  K.(.3X3X3X3X3X3X3X3X3X3X3X3X3X3X3X3X3X3X3X3X3X3X3X3X3X3X(.K.  ",
"      . . . . . . . . . . . . . . . . . . . . . . . . . .       "
};
