/* XPM */
static char *result[] = {
/* columns rows colors chars-per-pixel */
"32 32 180 2 ",
"   c #222222",
".  c #212222",
"X  c #262524",
"o  c #443838",
"O  c #443837",
"+  c #483B3A",
"@  c #262424",
"#  c #262525",
"$  c #2A2727",
"%  c #453938",
"&  c #443938",
"*  c #272525",
"=  c #2B2827",
"-  c #2B2828",
";  c #252424",
":  c #403635",
">  c #69534D",
",  c #6E5650",
"<  c #443736",
"1  c #443735",
"2  c #443635",
"3  c #473A39",
"4  c #4D3F3D",
"5  c #735952",
"6  c #785D56",
"7  c #281916",
"8  c #241511",
"9  c #251512",
"0  c #4E3F3E",
"q  c #725852",
"w  c #775C55",
"e  c #413332",
"r  c #311F18",
"t  c #2E1B15",
"y  c #2E1C15",
"u  c #2E1B14",
"i  c #2A1812",
"p  c #413331",
"a  c #493B39",
"s  c #715852",
"d  c #493B3B",
"f  c #846249",
"g  c #906C50",
"h  c #906B50",
"j  c #8C684D",
"k  c #704F36",
"l  c #301E18",
"z  c #2D1D19",
"x  c #6E544E",
"c  c #403433",
"v  c #241411",
"b  c #9F7759",
"n  c #9E7759",
"m  c #997355",
"M  c #76543A",
"N  c #755339",
"B  c #926C50",
"V  c #967053",
"C  c #957053",
"Z  c #9A7355",
"A  c #956F52",
"S  c #765439",
"D  c #291814",
"F  c #6E544D",
"G  c #252222",
"H  c #21120F",
"J  c #8F6B50",
"K  c #9E7658",
"L  c #956F53",
"P  c #5C402C",
"I  c #543927",
"U  c #583C2A",
"Y  c #583D2A",
"T  c #5B3F2C",
"R  c #7A573C",
"E  c #755439",
"W  c #583C29",
"Q  c #503625",
"!  c #533826",
"~  c #533927",
"^  c #533827",
"/  c #573C29",
"(  c #715036",
")  c #573B28",
"_  c #755338",
"`  c #6D4D34",
"'  c #745238",
"]  c #79573C",
"[  c #79573B",
"{  c #69514B",
"}  c #735953",
"|  c #262322",
" . c #2F1C15",
".. c #9E7758",
"X. c #987255",
"o. c #956F51",
"O. c #997255",
"+. c #946E51",
"@. c #987254",
"#. c #483938",
"$. c #222020",
"%. c #20120F",
"&. c #9D7658",
"*. c #7D5A3F",
"=. c #7D5A3E",
"-. c #2B1812",
";. c #79563B",
":. c #6C4C33",
">. c #745338",
",. c #2A1811",
"<. c #765338",
"1. c #21130F",
"2. c #6A514B",
"3. c #43383A",
"4. c #3F3434",
"5. c #654E4A",
"6. c #6E5652",
"7. c #1C1F32",
"8. c #1D1E2E",
"9. c #201211",
"0. c #916C50",
"q. c #967052",
"w. c #725036",
"e. c #212131",
"r. c #212335",
"t. c #171C31",
"y. c #181B2D",
"u. c #1F1211",
"i. c #966F52",
"p. c #171A2D",
"a. c #161C31",
"s. c #4F3625",
"d. c #1F1210",
"f. c #765438",
"g. c #725136",
"h. c #513725",
"j. c #181B2E",
"k. c #1E1314",
"l. c #281915",
"z. c #634733",
"x. c #6B4D38",
"c. c #6B4D37",
"v. c #674A35",
"b. c #4D3628",
"n. c #493326",
"m. c #4A3326",
"M. c #191C2E",
"N. c #202131",
"B. c #212232",
"V. c #1E1F30",
"C. c #1D1F30",
"Z. c #161B30",
"A. c #181D2F",
"S. c #181D30",
"D. c #181D32",
"F. c #202235",
"G. c #222335",
"H. c #202123",
"J. c #1F2025",
"K. c #171C2F",
"L. c #161B31",
"P. c #202234",
"I. c #634F4E",
"U. c #6D5651",
"Y. c #2A2829",
"T. c #232433",
"R. c #1D2032",
"E. c #2B2938",
"W. c #6E564F",
"Q. c #6D5551",
"!. c #68524E",
"~. c #473B3C",
"^. c #423739",
"/. c #68524F",
"(. c #473B3B",
"). c #765B55",
"_. c #785C55",
"`. c #785D55",
"'. c #4E3F3D",
"]. c white",
/* pixels */
"        . X o o X .         . X O + + + + O @ @ o o X .     . . ",
"    @ # X $ % % $ X # # # # X $ & + + + + & $ $ % % $ X # * = - ",
". ; : o & % + + % & & & & & & % + + + + + + % % + + % & O + > , ",
"X $ % + < 1 2 2 1 1 1 1 1 1 1 1 2 2 2 2 2 2 1 1 2 2 1 < 3 4 5 6 ",
"O & + < 7 8 8 8 9 9 8 8 8 8 8 8 8 8 8 8 8 8 9 9 8 8 8 7 < 0 q w ",
"+ + < e r t y u i i u y y y y y y y y y y u i i u y t r p a s w ",
"d < 7 r f g h j k k j g h h h h h h h h h j k k j h g f l z x 6 ",
"& c v y g b n m M N B V C V m m V V m Z Z A S M m n b g u D F 6 ",
"# G H y J n K L P I U Y Y P M M T T M R R E W P L K n J t D F 6 ",
"# G H y J n K A Y Q ! ~ ^ / ( ( ) ) ( _ _ ( ^ Y A K n J t D F 6 ",
"& c 8 y J n K A Y ! ` ( ( ( ' ' ( ( ' _ _ ( ^ Y A K n J t D F 6 ",
"& c 8 y J n K L P W S R R R ] ] R R ] [ R E W P L K n J t D { } ",
"# | H  .h n ..X.M E o.m O.O.O.O.O.O.O.O.O.+.N E @...n h y 9 #.4 ",
"  $.%.t j Z O.+.E E o.m O.O.O.O.O.O.O.m &.m *.=.A O.Z j u 9 #.4 ",
"  $.%.-.k R R E W W E R [ [ [ [ [ [ ;.=.m &.Z A =.[ R k i D { } ",
"  $.%.i :._ _ ( ~ ~ ( _ _ _ _ _ ;.[ ;.=.A O.m A ;.>._ :.,.D { } ",
"  $.%.i :.<._ ( I I ( _ _ _ >.;.A m m A =.[ ] ;._ _ <.:.,.9 #.4 ",
"# | 1.i :.<._ ( I I ( S ;.] [ =.A m m A ;.>._ _ _ _ <.:.,.9 #.4 ",
"% c 8 ,.:.<._ ( I I k ;.A m m A =.[ ] ;._ _ _ _ _ _ <.:.,.D 2.} ",
"3.4.8 ,.:.<._ ( I I N =.A m m A ;.>._ _ _ _ ( ( _ _ <.:.,.D 5.6.",
"7.8.9.,.:.<._ ( ~ U 0.q.=.[ ] ;._ _ _ _ <.w./ / ( _ <.:.,.9.e.r.",
"t.y.u.,.:.<._ ( ~ U 0.i.;.>._ _ _ _ ( ( ( ` ^ I ( _ <.:.,.u.p.a.",
"t.y.u.,.:.<._ ( I I N [ _ _ _ _ <.w.W I I I Q I ( _ <.:.,.u.y.t.",
"t.y.u.,.:.<._ ( I I ( _ _ _ ( ( ( ` ~ s.Q Q Q I ( _ <.:.,.u.y.t.",
"t.y.d.,.:.f.f.w.I I w.f.f.g.W I I I h.Q Q Q Q I w.f.f.:.,.d.y.t.",
"t.j.k.l.z.x.c.v.b.b.v.c.c.v.b.n.m.m.m.m.m.m.m.b.v.c.x.z.l.k.j.t.",
"t.t.y.M.N.B.B.B.V.V.B.B.B.B.V.C.C.C.C.C.C.C.C.V.B.B.B.N.M.y.Z.a.",
"A.S.t.t.a.a.a.a.t.t.a.a.a.a.t.t.t.t.t.t.t.t.t.t.a.a.a.a.t.D.F.G.",
"H.J.K.L.a.a.t.t.t.t.a.a.t.t.a.a.a.a.a.a.a.a.t.t.a.a.a.a.Z.P.I.U.",
"= Y.T.r.r.r.R.7.7.R.r.r.R.R.r.r.r.r.r.r.r.r.R.R.r.r.r.r.r.E.6.6 ",
"W., Q.Q.Q.!.~.^.^.~././.(.(.!.Q.Q.Q.Q.Q.Q.!.(.(.!.Q.Q.Q.Q.6.).w ",
"_._.`.`.`.5 '.+ + '.} } 4 4 5 `.`.`.`.`.`.5 4 4 5 `.`.`.`._.w w "
};
