/* XPM */
static char *result[] = {
/* columns rows colors chars-per-pixel */
"32 32 41 1 ",
"  c #222222",
". c #212222",
"X c #262524",
"o c #443838",
"O c #443837",
"+ c #483B3A",
"@ c #262424",
"# c #262525",
"$ c #2A2727",
"% c #453938",
"& c #443938",
"* c #272525",
"= c #2B2827",
"- c #2B2828",
"; c #252424",
": c #403635",
"> c #69534D",
", c #6E5650",
"< c #493B3A",
"1 c #4D3F3D",
"2 c #735952",
"3 c #785D56",
"4 c #725852",
"5 c #775C55",
"6 c #725952",
"7 c #785D55",
"8 c #4D3E3D",
"9 c #6D554F",
"0 c #4C3E3C",
"q c #6E5550",
"w c gray13",
"e c #433837",
"r c #473B3A",
"t c #2F2B2A",
"y c #493C3B",
"u c #524240",
"i c #6E564F",
"p c #715852",
"a c #765C55",
"s c #785C55",
"d c white",
/* pixels */
"    .XooX.    .XO++++O@@ooX.  ..",
"  @#X$%%$X####X$&++++&$$%%$X#*=-",
".;:oO&++&OOOOOO&++++++&&++&OO+>,",
"X$%<+++++++++++++++++++++++++123",
"O&+++++++++++++++++++++++++++145",
"+++++++++++++++++++++++++++++145",
"+++++++++++++++++++++++++++++145",
"O&+++++++++++++++++++++++++++145",
"@$&++++++++++++++++++++++++++145",
"@$&++++++++++++++++++++++++++145",
"o%+++++++++++++++++++++++++++167",
"o%+++++++++++++++++++++++++++896",
"X$&++++++++++++++++++++++++++<08",
".XO++++++++++++++++++++++++++<08",
" #O++++++++++++++++++++++++++8q2",
" #O++++++++++++++++++++++++++8q2",
".XO++++++++++++++++++++++++++<08",
"X$&++++++++++++++++++++++++++<08",
"O&+++++++++++++++++++++++++++896",
"+++++++++++++++++++++++++++++167",
"+++++++++++++++++++++++++++++167",
"O&+++++++++++++++++++++++++++896",
"X$&++++++++++++++++++++++++++<81",
".XO+++++++++++++++++++++++++++++",
" #O+++++++++++++++++++++++++++++",
" #O++++++++++++++++++++++++++<81",
" #O++++++++++++++++++++++++++896",
" #O++++++++++++++++++++++++++167",
"w@e+++++++++++++++++++++++++r845",
"=ty118<++<88<<81111118<<81118u65",
"i,p4698++8qq009644446900964446a5",
"ss55761++12288675555768867555555"
};
