/* XPM */
static char *result[] = {
/* columns rows colors chars-per-pixel */
"32 32 152 2 ",
"   c #222222",
".  c #212222",
"X  c #262524",
"o  c #443838",
"O  c #443837",
"+  c #483B3A",
"@  c #262424",
"#  c #262525",
"$  c #2A2727",
"%  c #453938",
"&  c #443938",
"*  c #272525",
"=  c #2B2827",
"-  c #2B2828",
";  c #252424",
":  c #403635",
">  c #69534D",
",  c #6E5650",
"<  c #493B3A",
"1  c #4D3F3D",
"2  c #735952",
"3  c #785D56",
"4  c #725852",
"5  c #775C55",
"6  c #473B3A",
"7  c #543F38",
"8  c #553F38",
"9  c #4E3F3C",
"0  c #543E38",
"q  c #AC5829",
"w  c #B15C2C",
"e  c #7A594E",
"r  c #725953",
"t  c #715852",
"y  c #79594D",
"u  c #493C3A",
"i  c #4D3E3D",
"p  c #4C3E3D",
"a  c #5A423A",
"s  c #B95D27",
"d  c #BD5F29",
"f  c #78574B",
"g  c #6F5750",
"h  c #7E5C50",
"j  c #805D50",
"k  c #7F5D51",
"l  c #785C55",
"z  c #BE602A",
"x  c #473A39",
"c  c #4C3E3C",
"v  c #6D554F",
"b  c #725952",
"n  c #7B5A4D",
"m  c #BD602A",
"M  c #B55A25",
"N  c #3B2E27",
"B  c #3A2E28",
"V  c #AE5A2A",
"C  c #BF602A",
"Z  c #B6602F",
"A  c #BD5F2A",
"S  c #7B594D",
"D  c #735953",
"F  c #785D55",
"G  c #524240",
"H  c #6E5751",
"J  c #77574B",
"K  c #B45924",
"L  c #322822",
"P  c #302722",
"I  c #A45324",
"U  c #B55A24",
"Y  c #AC5929",
"T  c #75564B",
"R  c #BC5F29",
"E  c #765C55",
"W  c #6A534E",
"Q  c #50413F",
"!  c #51413F",
"~  c #2E2A2A",
"^  c #6A534D",
"/  c #745A53",
"(  c #6F5650",
")  c #322E2D",
"_  c #B45A25",
"`  c #342922",
"'  c #232222",
"]  c #312822",
"[  c #332822",
"{  c #322823",
"}  c #3C2E27",
"|  c #815D50",
" . c #6F5751",
".. c #332E2C",
"X. c #322D2C",
"o. c #6B544E",
"O. c gray13",
"+. c #66504B",
"@. c #705751",
"#. c #6E564F",
"$. c #292727",
"%. c #65504B",
"&. c #292726",
"*. c #232323",
"=. c #342E2D",
"-. c #2A2828",
";. c #A45424",
":. c #B65A25",
">. c #B65B25",
",. c #6B534E",
"<. c #AF5725",
"1. c #202122",
"2. c #2A2827",
"3. c #222223",
"4. c #2E2623",
"5. c #894028",
"6. c #332922",
"7. c #2F2623",
"8. c #483C3A",
"9. c #2E2523",
"0. c #843D28",
"q. c #2C2523",
"w. c #2D2523",
"e. c #212122",
"r. c #793A28",
"t. c #853D28",
"y. c #803A29",
"u. c #2F2B2A",
"i. c #493C3B",
"p. c #292223",
"a. c #60262D",
"s. c #433837",
"d. c #312828",
"f. c #5C232E",
"g. c #5B232E",
"h. c #272223",
"j. c #282223",
"k. c #6D504C",
"l. c #642832",
"z. c #5B222D",
"x. c #55222C",
"c. c #71544F",
"v. c #662E37",
"b. c #5E2932",
"n. c #312829",
"m. c #652933",
"M. c #71534F",
"N. c #755651",
"B. c #745651",
"V. c #6D5650",
"C. c #6E5550",
"Z. c white",
/* pixels */
"        . X o o X .         . X O + + + + O @ @ o o X .     . . ",
"    @ # X $ % % $ X # # # # X $ & + + + + & $ $ % % $ X # * = - ",
". ; : o O & + + & O O O O O O & + + + + + + & & + + & O O + > , ",
"X $ % < + + + + + + + + + + + + + + + + + + + + + + + + + 1 2 3 ",
"O & + + + + + + + + + + + + + + + + + + + + + + + + + + + 1 4 5 ",
"+ + + + + + + + + + + + + + + + + + + + + + + + + + + + + 1 4 5 ",
"+ + + + + + + + 6 6 + + + + + + + + + + + + 6 6 + + + + + 1 4 5 ",
"O & + + + + + < 7 8 9 1 1 1 1 1 1 1 1 1 1 9 8 7 < + + + + 1 4 5 ",
"@ $ & + + + 6 0 q w e r t t t t t t t t t y w q 0 6 + + + 1 4 5 ",
"@ $ & u i 1 p a s d f g h j j j j j j k l j z s a p 1 i + 1 4 5 ",
"o % x c v b r n m M N B V C z z z z z Z k j m A S t D , c i b F ",
"o % c G D 5 H J A K L P I U K K K K K Y T J R m j E g W Q ! , b ",
"@ ~ ^ / 5 ( ) N M _ ` ' ] [ [ [ [ [ [ { = } M z |  ...X.o.( ! p ",
"O.$ +.@.5 #.$.[ _ _ ` ' ] [ [ [ [ [ [ ]   [ K A f %.&.&.+.o.Q p ",
"  *.$ =.@.( -.[ M M [ ] ;.:._ _ _ _ :.;.] [ M >.} $.*.*.$ ..,.D ",
"    O.$ +.+.$.[ <.<.L ] ;.:._ _ _ _ :.;.] L <.<.[ 1.    O.2.> D ",
"      *.2.2.3.4.5.5.4.' ] 6.6.6.6.6.6.] ' 4.5.5.7..       * 8.1 ",
"# @     . . . 9.0.0.9.  q.w.w.w.w.w.w.q.  9.0.0.9..       # O + ",
"o : ; e.    . 9.0.0.w.q.r.t.0.0.0.0.t.r.q.w.0.0.9..     O.@ O + ",
"< % ~ $ *.  . w.y.y.w.q.r.t.0.0.0.0.t.r.q.w.y.y.w..   *.$ u.i.1 ",
"+ c ,.+.$ O.. p.a.a.p.' q.w.w.w.w.w.w.q.' p.a.a.p.. O.$ +.g 4 b ",
"s.u , o...= - d.f.g.p.  h.j.j.j.j.j.j.h.  p.g.f.d.- = ..o.D b b ",
"X 2.u ! W , , k.l.z.j.h.x.z.z.z.z.z.z.x.h.j.z.l.k., , W ! i 1 1 ",
". X s.i , D D c.v.b.n.n.b.m.m.m.m.m.m.b.n.n.b.v.c.D D , c 6 + + ",
"  # O u i 1 i ! M.N.( ( B.N.N.N.N.N.N.B.( ( N.M.! i 1 i < + + + ",
"  # O + + + 6 c V.r b b b b b b b b b b b b r V.c 6 + + + < i 1 ",
"  # O + + + + < i 1 1 1 1 1 1 1 1 1 1 1 1 1 1 i < + + + + i v b ",
"  # O + + + + + + + + + + + + + + + + + + + + + + + + + + 1 b F ",
"O.@ s.+ + + + + + + + + + + + + + + + + + + + + + + + + 6 i 4 5 ",
"= u.i.1 1 i < + + < i i < < i 1 1 1 1 1 1 i < < i 1 1 1 i G b 5 ",
"#., t 4 b v i + + i C.C.c c v b 4 4 4 4 b v c c v b 4 4 4 b E 5 ",
"l l 5 5 F b 1 + + 1 2 2 i i b F 5 5 5 5 F b i i b F 5 5 5 5 5 5 "
};
