/* XPM */
static char *result[] = {
/* columns rows colors chars-per-pixel */
"32 32 53 1 ",
"  c #1C1117",
". c #1D1318",
"X c #201F20",
"o c #312E2C",
"O c #9B8170",
"+ c #AB8D7A",
"@ c #AA8D7A",
"# c #312E2B",
"$ c gray13",
"% c #9F8675",
"& c #AF9380",
"* c #AE927F",
"= c #353330",
"- c #BDAA97",
"; c #D1BCA6",
": c #D0BBA5",
"> c #33312F",
", c #AF9F8D",
"< c #C1AF9C",
"1 c #C0AE9B",
"2 c #212021",
"3 c gray14",
"4 c #353331",
"5 c #222222",
"6 c #212222",
"7 c #232323",
"8 c #2A2827",
"9 c #2B2828",
"0 c #212020",
"q c #66504B",
"w c #6F5650",
"e c #6E5650",
"r c #2B2827",
"t c #6A534D",
"y c #735953",
"u c #735952",
"i c #272525",
"p c #483B3A",
"a c #4D3F3D",
"s c #262525",
"d c #443837",
"f c #443838",
"g c #493B3A",
"h c #262524",
"j c #403635",
"k c #252424",
"l c #262424",
"z c #2A2727",
"x c #232222",
"c c #483C3A",
"v c #473A3A",
"b c #453938",
"n c white",
/* pixels */
"                     .XoO+@@+O#$",
"                     .Xo%&**&%o$",
"                     .X=-;::;-=$",
"                     .X>,<11<,>$",
"                     .23>4444>35",
"                     .25$$$$$$55",
"                     .2566666666",
"                     .2789999999",
"                     .08qweeeeee",
"                     .0rtyuuuuuu",
"                     .2ipaaaaaaa",
"                     .2sdppppppp",
"                     .2sfgpppppp",
"                     .2hjfdddddd",
"                     .25klllssll",
"                     .27zrrzxxzr",
"                     .08qwwqzzqw",
"                     .0rtyyt88ty",
"                     .2ipaapssca",
"                     .2sdppdhhdp",
"                     .2sfggfhhfg",
"                     .2hjffjkkjf",
"                     .25kllk55kl",
"                     .27zrrr99rr",
"                     .08qweeeeee",
"                     .0rtyuuuuuu",
"                     .2ipaaaaaaa",
"                     .2sdppvddvp",
"                     .2sfggbzzbg",
"                     .2hjffjkkjf",
"                     .25lssl55ls",
"                     .2555555555"
};
