/* XPM */
static char *result[] = {
/* columns rows colors chars-per-pixel */
"32 32 53 1 ",
"  c gray13",
". c #312E2B",
"X c #9B8170",
"o c #AB8D7A",
"O c #AA8D7A",
"+ c #312E2C",
"@ c #201F20",
"# c #1D1318",
"$ c #1C1117",
"% c #9F8675",
"& c #AF9380",
"* c #AE927F",
"= c #353330",
"- c #BDAA97",
"; c #D1BCA6",
": c #D0BBA5",
"> c #33312F",
", c #AF9F8D",
"< c #C1AF9C",
"1 c #C0AE9B",
"2 c #222222",
"3 c gray14",
"4 c #353331",
"5 c #212021",
"6 c #212222",
"7 c #2B2828",
"8 c #2A2827",
"9 c #232323",
"0 c #6E5650",
"q c #6F5650",
"w c #66504B",
"e c #212020",
"r c #735952",
"t c #735953",
"y c #6A534D",
"u c #2B2827",
"i c #4D3F3D",
"p c #483B3A",
"a c #272525",
"s c #443837",
"d c #262525",
"f c #493B3A",
"g c #443838",
"h c #403635",
"j c #262524",
"k c #262424",
"l c #252424",
"z c #2A2727",
"x c #232222",
"c c #483C3A",
"v c #473A3A",
"b c #453938",
"n c white",
/* pixels */
" .XoOOoX+@#$$$$$$$$$$$$$$$$$$$$$",
" +%&**&%+@#$$$$$$$$$$$$$$$$$$$$$",
" =-;::;-=@#$$$$$$$$$$$$$$$$$$$$$",
" >,<11<,>@#$$$$$$$$$$$$$$$$$$$$$",
"23>4444>35#$$$$$$$$$$$$$$$$$$$$$",
"22      25#$$$$$$$$$$$$$$$$$$$$$",
"6666666625#$$$$$$$$$$$$$$$$$$$$$",
"7777777895#$$$$$$$$$$$$$$$$$$$$$",
"000000qw8e#$$$$$$$$$$$$$$$$$$$$$",
"rrrrrrtyue#$$$$$$$$$$$$$$$$$$$$$",
"iiiiiiipa5#$$$$$$$$$$$$$$$$$$$$$",
"pppppppsd5#$$$$$$$$$$$$$$$$$$$$$",
"ppppppfgd5#$$$$$$$$$$$$$$$$$$$$$",
"ssssssghj5#$$$$$$$$$$$$$$$$$$$$$",
"kkddkkkl25#$$$$$$$$$$$$$$$$$$$$$",
"uzxxzuuz95#$$$$$$$$$$$$$$$$$$$$$",
"qwzzwqqw8e#$$$$$$$$$$$$$$$$$$$$$",
"ty88yttyue#$$$$$$$$$$$$$$$$$$$$$",
"icddpiipa5#$$$$$$$$$$$$$$$$$$$$$",
"psjjsppsd5#$$$$$$$$$$$$$$$$$$$$$",
"fgjjgffgd5#$$$$$$$$$$$$$$$$$$$$$",
"ghllhgghj5#$$$$$$$$$$$$$$$$$$$$$",
"kl22lkkl25#$$$$$$$$$$$$$$$$$$$$$",
"uu77uuuz95#$$$$$$$$$$$$$$$$$$$$$",
"000000qw8e#$$$$$$$$$$$$$$$$$$$$$",
"rrrrrrtyue#$$$$$$$$$$$$$$$$$$$$$",
"iiiiiiipa5#$$$$$$$$$$$$$$$$$$$$$",
"pvssvppsd5#$$$$$$$$$$$$$$$$$$$$$",
"fbzzbffgd5#$$$$$$$$$$$$$$$$$$$$$",
"ghllhgghj5#$$$$$$$$$$$$$$$$$$$$$",
"dk22kddk25#$$$$$$$$$$$$$$$$$$$$$",
"2222222225#$$$$$$$$$$$$$$$$$$$$$"
};
