/* XPM */
static char *result[] = {
/* columns rows colors chars-per-pixel */
"32 32 38 1 ",
"  c gray13",
". c #312E2B",
"X c #9B8170",
"o c #AB8D7A",
"O c #AA8D7A",
"+ c #312E2C",
"@ c #201F20",
"# c #1D1318",
"$ c #1C1117",
"% c #9F8675",
"& c #AF9380",
"* c #AE927F",
"= c #353330",
"- c #BDAA97",
"; c #D1BCA6",
": c #D0BBA5",
"> c #33312F",
", c #AF9F8D",
"< c #C1AF9C",
"1 c #C0AE9B",
"2 c #222222",
"3 c gray14",
"4 c #32312F",
"5 c #343230",
"6 c #212021",
"7 c #232323",
"8 c #2E2B2A",
"9 c #302D2B",
"0 c #302C2B",
"q c #242323",
"w c #2F2C2A",
"e c #8E7768",
"r c #9C8271",
"t c #2F2D2B",
"y c #AC8F7B",
"u c #AB8E7B",
"i c #B09380",
"p c white",
/* pixels */
" .XoOOoX+@#$$$$$$$$$$$$$$$$$$$$$",
" +%&**&%+@#$$$$$$$$$$$$$$$$$$$$$",
" =-;::;-=@#$$$$$$$$$$$$$$$$$$$$$",
" >,<11<,>@#$$$$$$$$$$$$$$$$$$$$$",
"2345555436#$$$$$$$$$$$$$$$$$$$$$",
"27890098q6#$$$$$$$$$$$$$$$$$$$$$",
" werXXret@#$$$$$$$$$$$$$$$$$$$$$",
" +ryuuyr+@#$$$$$$$$$$$$$$$$$$$$$",
" +XuOOuX+@#$$$$$$$$$$$$$$$$$$$$$",
" +XuOOuX+@#$$$$$$$$$$$$$$$$$$$$$",
" +XuOOuX+@#$$$$$$$$$$$$$$$$$$$$$",
" +XuOOuX+@#$$$$$$$$$$$$$$$$$$$$$",
" +XuOOuX+@#$$$$$$$$$$$$$$$$$$$$$",
" +XuOOuX+@#$$$$$$$$$$$$$$$$$$$$$",
" .XoOOoX+@#$$$$$$$$$$$$$$$$$$$$$",
" +%i**i%+@#$$$$$$$$$$$$$$$$$$$$$",
" =-;::;-=@#$$$$$$$$$$$$$$$$$$$$$",
" >,<11<,>@#$$$$$$$$$$$$$$$$$$$$$",
"2345555436#$$$$$$$$$$$$$$$$$$$$$",
"27890098q6#$$$$$$$$$$$$$$$$$$$$$",
" werXXret@#$$$$$$$$$$$$$$$$$$$$$",
" +ryuuyr+@#$$$$$$$$$$$$$$$$$$$$$",
" +XuOOuX+@#$$$$$$$$$$$$$$$$$$$$$",
" +XuOOuX+@#$$$$$$$$$$$$$$$$$$$$$",
" +XuOOuX+@#$$$$$$$$$$$$$$$$$$$$$",
" +XuOOuX+@#$$$$$$$$$$$$$$$$$$$$$",
" +XuOOuX+@#$$$$$$$$$$$$$$$$$$$$$",
" +XuOOuX+@#$$$$$$$$$$$$$$$$$$$$$",
" +XuOOuX+@#$$$$$$$$$$$$$$$$$$$$$",
" +XuOOuX+@#$$$$$$$$$$$$$$$$$$$$$",
" +XuOOuX+@#$$$$$$$$$$$$$$$$$$$$$",
" +XuOOuX+@#$$$$$$$$$$$$$$$$$$$$$"
};
