/* XPM */
static char *result[] = {
/* columns rows colors chars-per-pixel */
"32 32 67 1 ",
"  c #1B1B1B",
". c gray11",
"X c #2B2826",
"o c #2C2826",
"O c #2A2725",
"+ c #1E1D1D",
"@ c #9B8271",
"# c #9C8271",
"$ c #8E7767",
"% c #292625",
"& c #AB8E7B",
"* c #AC8F7B",
"= c #9C8170",
"- c #C1A894",
"; c #C2A995",
": c #AF9987",
"> c #2D2A28",
", c #2E2B29",
"< c #C1AF9C",
"1 c #C2B09D",
"2 c #AF9F8E",
"3 c #2D2B29",
"4 c #2E2C2A",
"5 c #2F2D2B",
"6 c #302E2C",
"7 c #302E2B",
"8 c #1D1D1D",
"9 c #2D2B2A",
"0 c #1E1E1E",
"q c #252221",
"w c #242120",
"e c #1C1B1C",
"r c #262322",
"t c #6F564F",
"y c #654F49",
"u c #242221",
"i c #6F564E",
"p c #6E554E",
"a c #745952",
"s c #6A524C",
"d c #292524",
"f c #6A524B",
"g c #735951",
"h c #4C3C3A",
"j c #4A3B39",
"k c #423635",
"l c #463837",
"z c #211F1F",
"x c #4B3C3A",
"c c #413534",
"v c #201F1F",
"b c #453837",
"n c #423534",
"m c #453736",
"M c #473837",
"N c #433635",
"B c #423535",
"V c #3D3231",
"C c #201F1E",
"Z c #3E3232",
"A c #201E1E",
"S c #1F1E1E",
"D c #1D1D1C",
"F c #1B1C1C",
"G c #252322",
"H c #1D1C1C",
"J c white",
/* pixels */
"      ..      ..      ..      ..",
"XXXXoO++OoXXoO++OoXXoO++OoXXoO+.",
"@@@@#$%%$#@@#$%%$#@@#$%%$#@@#$O ",
"&&&&*=XX=*&&*=XX=*&&*=XX=*&&*=X ",
"----;:>>:;--;:>>:;--;:>>:;--;:, ",
"<<<<123321<<123321<<123321<<124 ",
"5566738846557388375579009755738 ",
"qweewqrq.ewqqqrrqqqqqw88wqqqqqrr",
"tyuuyiiyuuyippppppppiyuuyipppppp",
"asddsaafqqfaggggggggafqqfagggggg",
"hjkkjhhlzzlhxxxxxxxxhlzzlhhhxxxx",
"lllllllcvvcllllllllllcvvcbnnmlll",
"llllllMnvvnMllllllllMnvvnNuuBMll",
"ccccccnVCCVnccccccccnVCCZZAAVncc",
"vvvvvvvS..SvvvzzvvvvvS..SS..vzzz",
"rrrrrrrrrrrrrqDDqrrrrrrrrrrqD...",
"ppppppppppppiyuuyippppppppiyqF..",
"ggggggggggggafqqfaggggggggafG.vz",
"xxxxxxhhxxxxhlzzlhxxxxxxxxhlzAVn",
"lllllmnnmllllcvvcllllllllllcvvnM",
"llllMBuuBMllMnvvnMllllllllMnvvnM",
"ccccnVAAVnccnVCCVnccccccccnVCCVn",
"vvvvzv..SvvvvS..SvvvzzvvvvvS..Sv",
"rrrqHDqrrrrrrrrrrrrqDDqrrrrrrrrr",
"ppiyuuyippppppppppiyuuyipppppppp",
"ggafqqfaggggggggggafqqfagggggggg",
"xxhlzzlhxxxxxxxxhhhlzzlhhhxxxxxx",
"lllcvvcllllllllmnnbcvvcbnnmlllll",
"llMnvvnMllllllMBuuNnvvnNuuBMllll",
"ccnVCCVnccccccnVAAZZCCZZAAVncccc",
"zzzv..vzzzzzzzzv..vv..vv..vzzzzz",
"................................"
};
