/* XPM */
static char *result[] = {
/* columns rows colors chars-per-pixel */
"32 32 38 1 ",
"  c #1C1117",
". c #1D1318",
"X c #201F20",
"o c #312E2C",
"O c #9B8170",
"+ c #AB8D7A",
"@ c #AA8D7A",
"# c #312E2B",
"$ c gray13",
"% c #9F8675",
"& c #AF9380",
"* c #AE927F",
"= c #353330",
"- c #BDAA97",
"; c #D1BCA6",
": c #D0BBA5",
"> c #33312F",
", c #AF9F8D",
"< c #C1AF9C",
"1 c #C0AE9B",
"2 c #212021",
"3 c gray14",
"4 c #32312F",
"5 c #343230",
"6 c #222222",
"7 c #242323",
"8 c #2E2B2A",
"9 c #302D2B",
"0 c #302C2B",
"q c #232323",
"w c #2F2D2B",
"e c #8E7768",
"r c #9C8271",
"t c #2F2C2A",
"y c #AC8F7B",
"u c #AB8E7B",
"i c #B09380",
"p c white",
/* pixels */
"                     .XoO+@@+O#$",
"                     .Xo%&**&%o$",
"                     .X=-;::;-=$",
"                     .X>,<11<,>$",
"                     .2345555436",
"                     .27890098q6",
"                     .XwerOOret$",
"                     .Xoryuuyro$",
"                     .XoOu@@uOo$",
"                     .XoOu@@uOo$",
"                     .XoOu@@uOo$",
"                     .XoOu@@uOo$",
"                     .XoOu@@uOo$",
"                     .XoOu@@uOo$",
"                     .XoO+@@+O#$",
"                     .Xo%i**i%o$",
"                     .X=-;::;-=$",
"                     .X>,<11<,>$",
"                     .2345555436",
"                     .27890098q6",
"                     .XwerOOret$",
"                     .Xoryuuyro$",
"                     .XoOu@@uOo$",
"                     .XoOu@@uOo$",
"                     .XoOu@@uOo$",
"                     .XoOu@@uOo$",
"                     .XoOu@@uOo$",
"                     .XoOu@@uOo$",
"                     .XoOu@@uOo$",
"                     .XoOu@@uOo$",
"                     .XoOu@@uOo$",
"                     .XoOu@@uOo$"
};
